<svg width="252" height="48" viewBox="0 0 252 48" fill="none" xmlns="http://www.w3.org/2000/svg">
<g filter="url(#filter0_d_83_11038)">
<path d="M34.9922 30.5H33.4609L27.2344 20.9062H27.1719C27.1875 21.1615 27.2057 21.4531 27.2266 21.7812C27.2474 22.1042 27.263 22.4505 27.2734 22.8203C27.2891 23.1849 27.2969 23.5573 27.2969 23.9375V30.5H26.0625V19.0781H27.5859L33.7891 28.6406H33.8438C33.8333 28.4583 33.8203 28.2005 33.8047 27.8672C33.7891 27.5286 33.7734 27.1667 33.7578 26.7812C33.7474 26.3906 33.7422 26.0286 33.7422 25.6953V19.0781H34.9922V30.5ZM45.2969 26.2031C45.2969 26.9062 45.2057 27.5339 45.0234 28.0859C44.8411 28.638 44.5781 29.1042 44.2344 29.4844C43.8906 29.8646 43.474 30.1562 42.9844 30.3594C42.5 30.5573 41.9505 30.6562 41.3359 30.6562C40.763 30.6562 40.237 30.5573 39.7578 30.3594C39.2839 30.1562 38.8724 29.8646 38.5234 29.4844C38.1797 29.1042 37.9115 28.638 37.7188 28.0859C37.5312 27.5339 37.4375 26.9062 37.4375 26.2031C37.4375 25.2656 37.5964 24.4688 37.9141 23.8125C38.2318 23.151 38.6849 22.6484 39.2734 22.3047C39.8672 21.9557 40.5729 21.7812 41.3906 21.7812C42.1719 21.7812 42.8542 21.9557 43.4375 22.3047C44.026 22.6536 44.4818 23.1589 44.8047 23.8203C45.1328 24.4766 45.2969 25.2708 45.2969 26.2031ZM38.7812 26.2031C38.7812 26.8906 38.8724 27.487 39.0547 27.9922C39.237 28.4974 39.5182 28.888 39.8984 29.1641C40.2786 29.4401 40.7682 29.5781 41.3672 29.5781C41.9609 29.5781 42.4479 29.4401 42.8281 29.1641C43.2135 28.888 43.4974 28.4974 43.6797 27.9922C43.862 27.487 43.9531 26.8906 43.9531 26.2031C43.9531 25.5208 43.862 24.9323 43.6797 24.4375C43.4974 23.9375 43.2161 23.5521 42.8359 23.2812C42.4557 23.0104 41.9635 22.875 41.3594 22.875C40.4688 22.875 39.8151 23.1693 39.3984 23.7578C38.987 24.3464 38.7812 25.1615 38.7812 26.2031ZM54.4609 29.5938C54.6745 29.5938 54.8932 29.5755 55.1172 29.5391C55.3411 29.5026 55.5234 29.4583 55.6641 29.4062V30.4141C55.513 30.4818 55.3021 30.5391 55.0312 30.5859C54.7656 30.6328 54.5052 30.6562 54.25 30.6562C53.7969 30.6562 53.3854 30.5781 53.0156 30.4219C52.6458 30.2604 52.349 29.9896 52.125 29.6094C51.9062 29.2292 51.7969 28.7031 51.7969 28.0312V22.9531H50.5781V22.3203L51.8047 21.8125L52.3203 19.9531H53.1016V21.9375H55.6094V22.9531H53.1016V27.9922C53.1016 28.5286 53.224 28.9297 53.4688 29.1953C53.7188 29.4609 54.0495 29.5938 54.4609 29.5938ZM60.6016 21.7969C61.6224 21.7969 62.3802 22.026 62.875 22.4844C63.3698 22.9427 63.6172 23.6745 63.6172 24.6797V30.5H62.6719L62.4219 29.2344H62.3594C62.1198 29.5469 61.8698 29.8099 61.6094 30.0234C61.349 30.2318 61.0469 30.3906 60.7031 30.5C60.3646 30.6042 59.9479 30.6562 59.4531 30.6562C58.9323 30.6562 58.4688 30.5651 58.0625 30.3828C57.6615 30.2005 57.3438 29.9245 57.1094 29.5547C56.8802 29.1849 56.7656 28.7161 56.7656 28.1484C56.7656 27.2943 57.1042 26.638 57.7812 26.1797C58.4583 25.7214 59.4896 25.4714 60.875 25.4297L62.3516 25.3672V24.8438C62.3516 24.1042 62.1927 23.5859 61.875 23.2891C61.5573 22.9922 61.1094 22.8438 60.5312 22.8438C60.0833 22.8438 59.6562 22.9089 59.25 23.0391C58.8438 23.1693 58.4583 23.3229 58.0938 23.5L57.6953 22.5156C58.0807 22.3177 58.5234 22.1484 59.0234 22.0078C59.5234 21.8672 60.0495 21.7969 60.6016 21.7969ZM62.3359 26.2812L61.0312 26.3359C59.9635 26.3776 59.2109 26.5521 58.7734 26.8594C58.3359 27.1667 58.1172 27.6016 58.1172 28.1641C58.1172 28.6536 58.2656 29.0156 58.5625 29.25C58.8594 29.4844 59.2526 29.6016 59.7422 29.6016C60.5026 29.6016 61.125 29.3906 61.6094 28.9688C62.0938 28.5469 62.3359 27.9141 62.3359 27.0703V26.2812ZM71.8281 28.1562C71.8281 28.7031 71.6901 29.1641 71.4141 29.5391C71.1432 29.9089 70.7526 30.1875 70.2422 30.375C69.737 30.5625 69.1328 30.6562 68.4297 30.6562C67.8307 30.6562 67.3125 30.6094 66.875 30.5156C66.4375 30.4219 66.0547 30.2891 65.7266 30.1172V28.9219C66.0755 29.0938 66.4922 29.25 66.9766 29.3906C67.4609 29.5312 67.9557 29.6016 68.4609 29.6016C69.2005 29.6016 69.737 29.4818 70.0703 29.2422C70.4036 29.0026 70.5703 28.6771 70.5703 28.2656C70.5703 28.0312 70.5026 27.8255 70.3672 27.6484C70.237 27.4661 70.0156 27.2917 69.7031 27.125C69.3906 26.9531 68.9583 26.7656 68.4062 26.5625C67.8594 26.3542 67.3854 26.1484 66.9844 25.9453C66.5885 25.737 66.2812 25.4844 66.0625 25.1875C65.849 24.8906 65.7422 24.5052 65.7422 24.0312C65.7422 23.3073 66.0339 22.7526 66.6172 22.3672C67.2057 21.9766 67.9766 21.7812 68.9297 21.7812C69.4453 21.7812 69.9271 21.8333 70.375 21.9375C70.8281 22.0365 71.25 22.1719 71.6406 22.3438L71.2031 23.3828C70.849 23.2318 70.4714 23.1042 70.0703 23C69.6693 22.8958 69.2604 22.8438 68.8438 22.8438C68.2448 22.8438 67.7839 22.9427 67.4609 23.1406C67.1432 23.3385 66.9844 23.6094 66.9844 23.9531C66.9844 24.2188 67.0573 24.4375 67.2031 24.6094C67.3542 24.7812 67.5938 24.9427 67.9219 25.0938C68.25 25.2448 68.6823 25.4219 69.2188 25.625C69.7552 25.8229 70.2188 26.0286 70.6094 26.2422C71 26.4505 71.2995 26.7057 71.5078 27.0078C71.7214 27.3047 71.8281 27.6875 71.8281 28.1562ZM75.2031 18.3438V24.6562C75.2031 24.8646 75.1953 25.1198 75.1797 25.4219C75.1641 25.7188 75.151 25.9818 75.1406 26.2109H75.1953C75.3047 26.0755 75.4635 25.875 75.6719 25.6094C75.8854 25.3438 76.0651 25.1302 76.2109 24.9688L79.0547 21.9375H80.5781L77.1328 25.5938L80.8281 30.5H79.2656L76.2422 26.4453L75.2031 27.3984V30.5H73.9141V18.3438H75.2031ZM87.8594 28.1562C87.8594 28.7031 87.7214 29.1641 87.4453 29.5391C87.1745 29.9089 86.7839 30.1875 86.2734 30.375C85.7682 30.5625 85.1641 30.6562 84.4609 30.6562C83.862 30.6562 83.3438 30.6094 82.9062 30.5156C82.4688 30.4219 82.0859 30.2891 81.7578 30.1172V28.9219C82.1068 29.0938 82.5234 29.25 83.0078 29.3906C83.4922 29.5312 83.987 29.6016 84.4922 29.6016C85.2318 29.6016 85.7682 29.4818 86.1016 29.2422C86.4349 29.0026 86.6016 28.6771 86.6016 28.2656C86.6016 28.0312 86.5339 27.8255 86.3984 27.6484C86.2682 27.4661 86.0469 27.2917 85.7344 27.125C85.4219 26.9531 84.9896 26.7656 84.4375 26.5625C83.8906 26.3542 83.4167 26.1484 83.0156 25.9453C82.6198 25.737 82.3125 25.4844 82.0938 25.1875C81.8802 24.8906 81.7734 24.5052 81.7734 24.0312C81.7734 23.3073 82.0651 22.7526 82.6484 22.3672C83.237 21.9766 84.0078 21.7812 84.9609 21.7812C85.4766 21.7812 85.9583 21.8333 86.4062 21.9375C86.8594 22.0365 87.2812 22.1719 87.6719 22.3438L87.2344 23.3828C86.8802 23.2318 86.5026 23.1042 86.1016 23C85.7005 22.8958 85.2917 22.8438 84.875 22.8438C84.276 22.8438 83.8151 22.9427 83.4922 23.1406C83.1745 23.3385 83.0156 23.6094 83.0156 23.9531C83.0156 24.2188 83.0885 24.4375 83.2344 24.6094C83.3854 24.7812 83.625 24.9427 83.9531 25.0938C84.2812 25.2448 84.7135 25.4219 85.25 25.625C85.7865 25.8229 86.25 26.0286 86.6406 26.2422C87.0312 26.4505 87.3307 26.7057 87.5391 27.0078C87.7526 27.3047 87.8594 27.6875 87.8594 28.1562ZM97.3047 21.7969C98.3255 21.7969 99.0833 22.026 99.5781 22.4844C100.073 22.9427 100.32 23.6745 100.32 24.6797V30.5H99.375L99.125 29.2344H99.0625C98.8229 29.5469 98.5729 29.8099 98.3125 30.0234C98.0521 30.2318 97.75 30.3906 97.4062 30.5C97.0677 30.6042 96.651 30.6562 96.1562 30.6562C95.6354 30.6562 95.1719 30.5651 94.7656 30.3828C94.3646 30.2005 94.0469 29.9245 93.8125 29.5547C93.5833 29.1849 93.4688 28.7161 93.4688 28.1484C93.4688 27.2943 93.8073 26.638 94.4844 26.1797C95.1615 25.7214 96.1927 25.4714 97.5781 25.4297L99.0547 25.3672V24.8438C99.0547 24.1042 98.8958 23.5859 98.5781 23.2891C98.2604 22.9922 97.8125 22.8438 97.2344 22.8438C96.7865 22.8438 96.3594 22.9089 95.9531 23.0391C95.5469 23.1693 95.1615 23.3229 94.7969 23.5L94.3984 22.5156C94.7839 22.3177 95.2266 22.1484 95.7266 22.0078C96.2266 21.8672 96.7526 21.7969 97.3047 21.7969ZM99.0391 26.2812L97.7344 26.3359C96.6667 26.3776 95.9141 26.5521 95.4766 26.8594C95.0391 27.1667 94.8203 27.6016 94.8203 28.1641C94.8203 28.6536 94.9688 29.0156 95.2656 29.25C95.5625 29.4844 95.9557 29.6016 96.4453 29.6016C97.2057 29.6016 97.8281 29.3906 98.3125 28.9688C98.7969 28.5469 99.0391 27.9141 99.0391 27.0703V26.2812ZM109.961 30.4844L108.438 25.5C108.37 25.2865 108.305 25.0781 108.242 24.875C108.185 24.6667 108.13 24.4688 108.078 24.2812C108.031 24.0885 107.987 23.9115 107.945 23.75C107.909 23.5833 107.878 23.4401 107.852 23.3203H107.797C107.776 23.4401 107.747 23.5833 107.711 23.75C107.674 23.9115 107.63 24.0885 107.578 24.2812C107.531 24.474 107.479 24.6771 107.422 24.8906C107.365 25.099 107.299 25.3099 107.227 25.5234L105.633 30.4844H104.172L101.812 21.9219H103.156L104.391 26.6484C104.474 26.9609 104.552 27.2708 104.625 27.5781C104.703 27.8802 104.768 28.1667 104.82 28.4375C104.878 28.7031 104.919 28.9349 104.945 29.1328H105.008C105.039 29.0026 105.073 28.8464 105.109 28.6641C105.151 28.4818 105.195 28.2891 105.242 28.0859C105.294 27.8776 105.349 27.6719 105.406 27.4688C105.464 27.2604 105.521 27.0651 105.578 26.8828L107.156 21.9219H108.555L110.078 26.875C110.156 27.125 110.232 27.3854 110.305 27.6562C110.383 27.9271 110.453 28.1901 110.516 28.4453C110.578 28.6953 110.622 28.9193 110.648 29.1172H110.711C110.732 28.9401 110.771 28.7214 110.828 28.4609C110.885 28.2005 110.951 27.9141 111.023 27.6016C111.102 27.2891 111.182 26.9714 111.266 26.6484L112.516 21.9219H113.836L111.469 30.4844H109.961ZM118.602 21.7969C119.622 21.7969 120.38 22.026 120.875 22.4844C121.37 22.9427 121.617 23.6745 121.617 24.6797V30.5H120.672L120.422 29.2344H120.359C120.12 29.5469 119.87 29.8099 119.609 30.0234C119.349 30.2318 119.047 30.3906 118.703 30.5C118.365 30.6042 117.948 30.6562 117.453 30.6562C116.932 30.6562 116.469 30.5651 116.062 30.3828C115.661 30.2005 115.344 29.9245 115.109 29.5547C114.88 29.1849 114.766 28.7161 114.766 28.1484C114.766 27.2943 115.104 26.638 115.781 26.1797C116.458 25.7214 117.49 25.4714 118.875 25.4297L120.352 25.3672V24.8438C120.352 24.1042 120.193 23.5859 119.875 23.2891C119.557 22.9922 119.109 22.8438 118.531 22.8438C118.083 22.8438 117.656 22.9089 117.25 23.0391C116.844 23.1693 116.458 23.3229 116.094 23.5L115.695 22.5156C116.081 22.3177 116.523 22.1484 117.023 22.0078C117.523 21.8672 118.049 21.7969 118.602 21.7969ZM120.336 26.2812L119.031 26.3359C117.964 26.3776 117.211 26.5521 116.773 26.8594C116.336 27.1667 116.117 27.6016 116.117 28.1641C116.117 28.6536 116.266 29.0156 116.562 29.25C116.859 29.4844 117.253 29.6016 117.742 29.6016C118.503 29.6016 119.125 29.3906 119.609 28.9688C120.094 28.5469 120.336 27.9141 120.336 27.0703V26.2812ZM125.586 21.9375V30.5H124.289V21.9375H125.586ZM124.953 18.7344C125.167 18.7344 125.349 18.8047 125.5 18.9453C125.656 19.0807 125.734 19.2943 125.734 19.5859C125.734 19.8724 125.656 20.0859 125.5 20.2266C125.349 20.3672 125.167 20.4375 124.953 20.4375C124.729 20.4375 124.542 20.3672 124.391 20.2266C124.245 20.0859 124.172 19.8724 124.172 19.5859C124.172 19.2943 124.245 19.0807 124.391 18.9453C124.542 18.8047 124.729 18.7344 124.953 18.7344ZM131.102 29.5938C131.315 29.5938 131.534 29.5755 131.758 29.5391C131.982 29.5026 132.164 29.4583 132.305 29.4062V30.4141C132.154 30.4818 131.943 30.5391 131.672 30.5859C131.406 30.6328 131.146 30.6562 130.891 30.6562C130.438 30.6562 130.026 30.5781 129.656 30.4219C129.286 30.2604 128.99 29.9896 128.766 29.6094C128.547 29.2292 128.438 28.7031 128.438 28.0312V22.9531H127.219V22.3203L128.445 21.8125L128.961 19.9531H129.742V21.9375H132.25V22.9531H129.742V27.9922C129.742 28.5286 129.865 28.9297 130.109 29.1953C130.359 29.4609 130.69 29.5938 131.102 29.5938ZM135.336 21.9375V30.5H134.039V21.9375H135.336ZM134.703 18.7344C134.917 18.7344 135.099 18.8047 135.25 18.9453C135.406 19.0807 135.484 19.2943 135.484 19.5859C135.484 19.8724 135.406 20.0859 135.25 20.2266C135.099 20.3672 134.917 20.4375 134.703 20.4375C134.479 20.4375 134.292 20.3672 134.141 20.2266C133.995 20.0859 133.922 19.8724 133.922 19.5859C133.922 19.2943 133.995 19.0807 134.141 18.9453C134.292 18.8047 134.479 18.7344 134.703 18.7344ZM142.141 21.7812C143.156 21.7812 143.924 22.0312 144.445 22.5312C144.966 23.026 145.227 23.8229 145.227 24.9219V30.5H143.945V25.0078C143.945 24.2943 143.781 23.7604 143.453 23.4062C143.13 23.0521 142.633 22.875 141.961 22.875C141.013 22.875 140.346 23.1432 139.961 23.6797C139.576 24.2161 139.383 24.9948 139.383 26.0156V30.5H138.086V21.9375H139.133L139.328 23.1719H139.398C139.581 22.8698 139.812 22.6172 140.094 22.4141C140.375 22.2057 140.69 22.0495 141.039 21.9453C141.388 21.8359 141.755 21.7812 142.141 21.7812ZM150.289 34.3438C149.164 34.3438 148.297 34.1328 147.688 33.7109C147.078 33.2943 146.773 32.7083 146.773 31.9531C146.773 31.4167 146.943 30.9583 147.281 30.5781C147.625 30.1979 148.099 29.9453 148.703 29.8203C148.479 29.7161 148.286 29.5599 148.125 29.3516C147.969 29.1432 147.891 28.9036 147.891 28.6328C147.891 28.3203 147.977 28.0469 148.148 27.8125C148.326 27.5729 148.594 27.3438 148.953 27.125C148.505 26.9427 148.141 26.6354 147.859 26.2031C147.583 25.7656 147.445 25.2578 147.445 24.6797C147.445 24.0651 147.573 23.5417 147.828 23.1094C148.083 22.6719 148.453 22.3385 148.938 22.1094C149.422 21.8802 150.008 21.7656 150.695 21.7656C150.846 21.7656 150.997 21.7734 151.148 21.7891C151.305 21.7995 151.453 21.8177 151.594 21.8438C151.734 21.8646 151.857 21.8906 151.961 21.9219H154.898V22.7578L153.32 22.9531C153.477 23.1562 153.607 23.401 153.711 23.6875C153.815 23.974 153.867 24.2917 153.867 24.6406C153.867 25.4948 153.578 26.1745 153 26.6797C152.422 27.1797 151.628 27.4297 150.617 27.4297C150.378 27.4297 150.133 27.4089 149.883 27.3672C149.628 27.5078 149.432 27.6641 149.297 27.8359C149.167 28.0078 149.102 28.2057 149.102 28.4297C149.102 28.5964 149.151 28.7292 149.25 28.8281C149.354 28.9271 149.503 29 149.695 29.0469C149.888 29.0885 150.12 29.1094 150.391 29.1094H151.898C152.831 29.1094 153.544 29.3047 154.039 29.6953C154.539 30.0859 154.789 30.6562 154.789 31.4062C154.789 32.3542 154.404 33.0807 153.633 33.5859C152.862 34.0911 151.747 34.3438 150.289 34.3438ZM150.328 33.3281C151.036 33.3281 151.622 33.2552 152.086 33.1094C152.555 32.9688 152.904 32.763 153.133 32.4922C153.367 32.2266 153.484 31.9089 153.484 31.5391C153.484 31.1953 153.406 30.9349 153.25 30.7578C153.094 30.5859 152.865 30.4714 152.562 30.4141C152.26 30.3516 151.891 30.3203 151.453 30.3203H149.969C149.583 30.3203 149.247 30.3802 148.961 30.5C148.674 30.6198 148.453 30.7969 148.297 31.0312C148.146 31.2656 148.07 31.5573 148.07 31.9062C148.07 32.3698 148.266 32.7214 148.656 32.9609C149.047 33.2057 149.604 33.3281 150.328 33.3281ZM150.664 26.4844C151.284 26.4844 151.75 26.3281 152.062 26.0156C152.375 25.7031 152.531 25.2474 152.531 24.6484C152.531 24.0078 152.372 23.5286 152.055 23.2109C151.737 22.888 151.268 22.7266 150.648 22.7266C150.055 22.7266 149.596 22.8932 149.273 23.2266C148.956 23.5547 148.797 24.0365 148.797 24.6719C148.797 25.2552 148.958 25.7031 149.281 26.0156C149.604 26.3281 150.065 26.4844 150.664 26.4844ZM164.555 22.9531H162.422V30.5H161.125V22.9531H159.609V22.3281L161.125 21.8984V21.3281C161.125 20.6094 161.232 20.026 161.445 19.5781C161.659 19.125 161.969 18.7917 162.375 18.5781C162.781 18.3646 163.276 18.2578 163.859 18.2578C164.188 18.2578 164.487 18.2865 164.758 18.3438C165.034 18.401 165.276 18.4661 165.484 18.5391L165.148 19.5625C164.971 19.5052 164.771 19.4531 164.547 19.4062C164.328 19.3542 164.104 19.3281 163.875 19.3281C163.38 19.3281 163.013 19.4896 162.773 19.8125C162.539 20.1302 162.422 20.6302 162.422 21.3125V21.9375H164.555V22.9531ZM169.43 21.7812C170.159 21.7812 170.784 21.9427 171.305 22.2656C171.826 22.5885 172.224 23.0417 172.5 23.625C172.776 24.2031 172.914 24.8802 172.914 25.6562V26.4609H167C167.016 27.4661 167.266 28.2318 167.75 28.7578C168.234 29.2839 168.917 29.5469 169.797 29.5469C170.339 29.5469 170.818 29.4974 171.234 29.3984C171.651 29.2995 172.083 29.1536 172.531 28.9609V30.1016C172.099 30.2943 171.669 30.4349 171.242 30.5234C170.82 30.612 170.32 30.6562 169.742 30.6562C168.919 30.6562 168.201 30.4896 167.586 30.1562C166.977 29.8177 166.503 29.3229 166.164 28.6719C165.826 28.0208 165.656 27.224 165.656 26.2812C165.656 25.3594 165.81 24.5625 166.117 23.8906C166.43 23.2135 166.867 22.6927 167.43 22.3281C167.997 21.9635 168.664 21.7812 169.43 21.7812ZM169.414 22.8438C168.721 22.8438 168.169 23.0703 167.758 23.5234C167.346 23.9766 167.102 24.6094 167.023 25.4219H171.555C171.549 24.9115 171.469 24.4635 171.312 24.0781C171.161 23.6875 170.93 23.3854 170.617 23.1719C170.305 22.9531 169.904 22.8438 169.414 22.8438ZM178.414 21.7812C179.143 21.7812 179.768 21.9427 180.289 22.2656C180.81 22.5885 181.208 23.0417 181.484 23.625C181.76 24.2031 181.898 24.8802 181.898 25.6562V26.4609H175.984C176 27.4661 176.25 28.2318 176.734 28.7578C177.219 29.2839 177.901 29.5469 178.781 29.5469C179.323 29.5469 179.802 29.4974 180.219 29.3984C180.635 29.2995 181.068 29.1536 181.516 28.9609V30.1016C181.083 30.2943 180.654 30.4349 180.227 30.5234C179.805 30.612 179.305 30.6562 178.727 30.6562C177.904 30.6562 177.185 30.4896 176.57 30.1562C175.961 29.8177 175.487 29.3229 175.148 28.6719C174.81 28.0208 174.641 27.224 174.641 26.2812C174.641 25.3594 174.794 24.5625 175.102 23.8906C175.414 23.2135 175.852 22.6927 176.414 22.3281C176.982 21.9635 177.648 21.7812 178.414 21.7812ZM178.398 22.8438C177.706 22.8438 177.154 23.0703 176.742 23.5234C176.331 23.9766 176.086 24.6094 176.008 25.4219H180.539C180.534 24.9115 180.453 24.4635 180.297 24.0781C180.146 23.6875 179.914 23.3854 179.602 23.1719C179.289 22.9531 178.888 22.8438 178.398 22.8438ZM187.148 30.6562C186.065 30.6562 185.206 30.2865 184.57 29.5469C183.94 28.8073 183.625 27.7083 183.625 26.25C183.625 24.776 183.948 23.6641 184.594 22.9141C185.24 22.1589 186.099 21.7812 187.172 21.7812C187.625 21.7812 188.021 21.8411 188.359 21.9609C188.698 22.0807 188.99 22.2422 189.234 22.4453C189.479 22.6432 189.685 22.8698 189.852 23.125H189.945C189.924 22.9635 189.904 22.7422 189.883 22.4609C189.862 22.1797 189.852 21.9505 189.852 21.7734V18.3438H191.148V30.5H190.102L189.906 29.2812H189.852C189.69 29.5365 189.484 29.7682 189.234 29.9766C188.99 30.1849 188.695 30.3516 188.352 30.4766C188.013 30.5964 187.612 30.6562 187.148 30.6562ZM187.352 29.5781C188.268 29.5781 188.917 29.3177 189.297 28.7969C189.677 28.276 189.867 27.5026 189.867 26.4766V26.2422C189.867 25.1536 189.685 24.3177 189.32 23.7344C188.961 23.151 188.305 22.8594 187.352 22.8594C186.555 22.8594 185.958 23.1667 185.562 23.7812C185.167 24.3906 184.969 25.224 184.969 26.2812C184.969 27.3333 185.164 28.1458 185.555 28.7188C185.951 29.2917 186.549 29.5781 187.352 29.5781ZM195.195 18.3438V21.3828C195.195 21.7318 195.185 22.0703 195.164 22.3984C195.148 22.7266 195.135 22.9818 195.125 23.1641H195.195C195.43 22.7786 195.768 22.4531 196.211 22.1875C196.654 21.9219 197.219 21.7891 197.906 21.7891C198.979 21.7891 199.833 22.1615 200.469 22.9062C201.109 23.6458 201.43 24.7474 201.43 26.2109C201.43 27.1745 201.284 27.987 200.992 28.6484C200.701 29.3099 200.289 29.8099 199.758 30.1484C199.227 30.487 198.599 30.6562 197.875 30.6562C197.198 30.6562 196.641 30.5312 196.203 30.2812C195.771 30.026 195.438 29.7161 195.203 29.3516H195.102L194.836 30.5H193.898V18.3438H195.195ZM197.695 22.875C197.076 22.875 196.583 22.9974 196.219 23.2422C195.854 23.4818 195.591 23.8464 195.43 24.3359C195.273 24.8203 195.195 25.4349 195.195 26.1797V26.25C195.195 27.3281 195.375 28.1536 195.734 28.7266C196.094 29.2943 196.747 29.5781 197.695 29.5781C198.492 29.5781 199.089 29.2865 199.484 28.7031C199.885 28.1198 200.086 27.2865 200.086 26.2031C200.086 25.099 199.888 24.2682 199.492 23.7109C199.102 23.1536 198.503 22.875 197.695 22.875ZM206.898 21.7969C207.919 21.7969 208.677 22.026 209.172 22.4844C209.667 22.9427 209.914 23.6745 209.914 24.6797V30.5H208.969L208.719 29.2344H208.656C208.417 29.5469 208.167 29.8099 207.906 30.0234C207.646 30.2318 207.344 30.3906 207 30.5C206.661 30.6042 206.245 30.6562 205.75 30.6562C205.229 30.6562 204.766 30.5651 204.359 30.3828C203.958 30.2005 203.641 29.9245 203.406 29.5547C203.177 29.1849 203.062 28.7161 203.062 28.1484C203.062 27.2943 203.401 26.638 204.078 26.1797C204.755 25.7214 205.786 25.4714 207.172 25.4297L208.648 25.3672V24.8438C208.648 24.1042 208.49 23.5859 208.172 23.2891C207.854 22.9922 207.406 22.8438 206.828 22.8438C206.38 22.8438 205.953 22.9089 205.547 23.0391C205.141 23.1693 204.755 23.3229 204.391 23.5L203.992 22.5156C204.378 22.3177 204.82 22.1484 205.32 22.0078C205.82 21.8672 206.346 21.7969 206.898 21.7969ZM208.633 26.2812L207.328 26.3359C206.26 26.3776 205.508 26.5521 205.07 26.8594C204.633 27.1667 204.414 27.6016 204.414 28.1641C204.414 28.6536 204.562 29.0156 204.859 29.25C205.156 29.4844 205.549 29.6016 206.039 29.6016C206.799 29.6016 207.422 29.3906 207.906 28.9688C208.391 28.5469 208.633 27.9141 208.633 27.0703V26.2812ZM216.016 30.6562C215.245 30.6562 214.565 30.4974 213.977 30.1797C213.388 29.862 212.93 29.3776 212.602 28.7266C212.273 28.0755 212.109 27.2552 212.109 26.2656C212.109 25.2292 212.281 24.3828 212.625 23.7266C212.974 23.0651 213.453 22.5755 214.062 22.2578C214.672 21.9401 215.365 21.7812 216.141 21.7812C216.568 21.7812 216.979 21.8255 217.375 21.9141C217.776 21.9974 218.104 22.1042 218.359 22.2344L217.969 23.3203C217.708 23.2161 217.406 23.1224 217.062 23.0391C216.724 22.9557 216.406 22.9141 216.109 22.9141C215.516 22.9141 215.021 23.0417 214.625 23.2969C214.234 23.5521 213.94 23.9271 213.742 24.4219C213.549 24.9167 213.453 25.526 213.453 26.25C213.453 26.9427 213.547 27.5339 213.734 28.0234C213.927 28.513 214.211 28.888 214.586 29.1484C214.966 29.4036 215.44 29.5312 216.008 29.5312C216.461 29.5312 216.87 29.4844 217.234 29.3906C217.599 29.2917 217.93 29.1771 218.227 29.0469V30.2031C217.94 30.349 217.62 30.4609 217.266 30.5391C216.917 30.6172 216.5 30.6562 216.016 30.6562ZM221.547 18.3438V24.6562C221.547 24.8646 221.539 25.1198 221.523 25.4219C221.508 25.7188 221.495 25.9818 221.484 26.2109H221.539C221.648 26.0755 221.807 25.875 222.016 25.6094C222.229 25.3438 222.409 25.1302 222.555 24.9688L225.398 21.9375H226.922L223.477 25.5938L227.172 30.5H225.609L222.586 26.4453L221.547 27.3984V30.5H220.258V18.3438H221.547Z" fill="#A8A8A8"/>
</g>
<defs>
<filter id="filter0_d_83_11038" x="-4" y="-4" width="260" height="56" filterUnits="userSpaceOnUse" color-interpolation-filters="sRGB">
<feFlood flood-opacity="0" result="BackgroundImageFix"/>
<feColorMatrix in="SourceAlpha" type="matrix" values="0 0 0 0 0 0 0 0 0 0 0 0 0 0 0 0 0 0 127 0" result="hardAlpha"/>
<feOffset/>
<feGaussianBlur stdDeviation="2"/>
<feColorMatrix type="matrix" values="0 0 0 0 0 0 0 0 0 0 0 0 0 0 0 0 0 0 0.16 0"/>
<feBlend mode="normal" in2="BackgroundImageFix" result="effect1_dropShadow_83_11038"/>
<feBlend mode="normal" in="SourceGraphic" in2="effect1_dropShadow_83_11038" result="shape"/>
</filter>
</defs>
</svg>
