<svg width="252" height="48" viewBox="0 0 252 48" fill="none" xmlns="http://www.w3.org/2000/svg">
<path d="M82.9922 30.5H81.4609L75.2344 20.9062H75.1719C75.1875 21.1615 75.2057 21.4531 75.2266 21.7812C75.2474 22.1042 75.263 22.4505 75.2734 22.8203C75.2891 23.1849 75.2969 23.5573 75.2969 23.9375V30.5H74.0625V19.0781H75.5859L81.7891 28.6406H81.8438C81.8333 28.4583 81.8203 28.2005 81.8047 27.8672C81.7891 27.5286 81.7734 27.1667 81.7578 26.7812C81.7474 26.3906 81.7422 26.0286 81.7422 25.6953V19.0781H82.9922V30.5ZM93.2969 26.2031C93.2969 26.9062 93.2057 27.5339 93.0234 28.0859C92.8411 28.638 92.5781 29.1042 92.2344 29.4844C91.8906 29.8646 91.474 30.1562 90.9844 30.3594C90.5 30.5573 89.9505 30.6562 89.3359 30.6562C88.763 30.6562 88.237 30.5573 87.7578 30.3594C87.2839 30.1562 86.8724 29.8646 86.5234 29.4844C86.1797 29.1042 85.9115 28.638 85.7188 28.0859C85.5312 27.5339 85.4375 26.9062 85.4375 26.2031C85.4375 25.2656 85.5964 24.4688 85.9141 23.8125C86.2318 23.151 86.6849 22.6484 87.2734 22.3047C87.8672 21.9557 88.5729 21.7812 89.3906 21.7812C90.1719 21.7812 90.8542 21.9557 91.4375 22.3047C92.026 22.6536 92.4818 23.1589 92.8047 23.8203C93.1328 24.4766 93.2969 25.2708 93.2969 26.2031ZM86.7812 26.2031C86.7812 26.8906 86.8724 27.487 87.0547 27.9922C87.237 28.4974 87.5182 28.888 87.8984 29.1641C88.2786 29.4401 88.7682 29.5781 89.3672 29.5781C89.9609 29.5781 90.4479 29.4401 90.8281 29.1641C91.2135 28.888 91.4974 28.4974 91.6797 27.9922C91.862 27.487 91.9531 26.8906 91.9531 26.2031C91.9531 25.5208 91.862 24.9323 91.6797 24.4375C91.4974 23.9375 91.2161 23.5521 90.8359 23.2812C90.4557 23.0104 89.9635 22.875 89.3594 22.875C88.4688 22.875 87.8151 23.1693 87.3984 23.7578C86.987 24.3464 86.7812 25.1615 86.7812 26.2031ZM102.461 29.5938C102.674 29.5938 102.893 29.5755 103.117 29.5391C103.341 29.5026 103.523 29.4583 103.664 29.4062V30.4141C103.513 30.4818 103.302 30.5391 103.031 30.5859C102.766 30.6328 102.505 30.6562 102.25 30.6562C101.797 30.6562 101.385 30.5781 101.016 30.4219C100.646 30.2604 100.349 29.9896 100.125 29.6094C99.9062 29.2292 99.7969 28.7031 99.7969 28.0312V22.9531H98.5781V22.3203L99.8047 21.8125L100.32 19.9531H101.102V21.9375H103.609V22.9531H101.102V27.9922C101.102 28.5286 101.224 28.9297 101.469 29.1953C101.719 29.4609 102.049 29.5938 102.461 29.5938ZM108.602 21.7969C109.622 21.7969 110.38 22.026 110.875 22.4844C111.37 22.9427 111.617 23.6745 111.617 24.6797V30.5H110.672L110.422 29.2344H110.359C110.12 29.5469 109.87 29.8099 109.609 30.0234C109.349 30.2318 109.047 30.3906 108.703 30.5C108.365 30.6042 107.948 30.6562 107.453 30.6562C106.932 30.6562 106.469 30.5651 106.062 30.3828C105.661 30.2005 105.344 29.9245 105.109 29.5547C104.88 29.1849 104.766 28.7161 104.766 28.1484C104.766 27.2943 105.104 26.638 105.781 26.1797C106.458 25.7214 107.49 25.4714 108.875 25.4297L110.352 25.3672V24.8438C110.352 24.1042 110.193 23.5859 109.875 23.2891C109.557 22.9922 109.109 22.8438 108.531 22.8438C108.083 22.8438 107.656 22.9089 107.25 23.0391C106.844 23.1693 106.458 23.3229 106.094 23.5L105.695 22.5156C106.081 22.3177 106.523 22.1484 107.023 22.0078C107.523 21.8672 108.049 21.7969 108.602 21.7969ZM110.336 26.2812L109.031 26.3359C107.964 26.3776 107.211 26.5521 106.773 26.8594C106.336 27.1667 106.117 27.6016 106.117 28.1641C106.117 28.6536 106.266 29.0156 106.562 29.25C106.859 29.4844 107.253 29.6016 107.742 29.6016C108.503 29.6016 109.125 29.3906 109.609 28.9688C110.094 28.5469 110.336 27.9141 110.336 27.0703V26.2812ZM119.828 28.1562C119.828 28.7031 119.69 29.1641 119.414 29.5391C119.143 29.9089 118.753 30.1875 118.242 30.375C117.737 30.5625 117.133 30.6562 116.43 30.6562C115.831 30.6562 115.312 30.6094 114.875 30.5156C114.438 30.4219 114.055 30.2891 113.727 30.1172V28.9219C114.076 29.0938 114.492 29.25 114.977 29.3906C115.461 29.5312 115.956 29.6016 116.461 29.6016C117.201 29.6016 117.737 29.4818 118.07 29.2422C118.404 29.0026 118.57 28.6771 118.57 28.2656C118.57 28.0312 118.503 27.8255 118.367 27.6484C118.237 27.4661 118.016 27.2917 117.703 27.125C117.391 26.9531 116.958 26.7656 116.406 26.5625C115.859 26.3542 115.385 26.1484 114.984 25.9453C114.589 25.737 114.281 25.4844 114.062 25.1875C113.849 24.8906 113.742 24.5052 113.742 24.0312C113.742 23.3073 114.034 22.7526 114.617 22.3672C115.206 21.9766 115.977 21.7812 116.93 21.7812C117.445 21.7812 117.927 21.8333 118.375 21.9375C118.828 22.0365 119.25 22.1719 119.641 22.3438L119.203 23.3828C118.849 23.2318 118.471 23.1042 118.07 23C117.669 22.8958 117.26 22.8438 116.844 22.8438C116.245 22.8438 115.784 22.9427 115.461 23.1406C115.143 23.3385 114.984 23.6094 114.984 23.9531C114.984 24.2188 115.057 24.4375 115.203 24.6094C115.354 24.7812 115.594 24.9427 115.922 25.0938C116.25 25.2448 116.682 25.4219 117.219 25.625C117.755 25.8229 118.219 26.0286 118.609 26.2422C119 26.4505 119.299 26.7057 119.508 27.0078C119.721 27.3047 119.828 27.6875 119.828 28.1562ZM123.203 18.3438V24.6562C123.203 24.8646 123.195 25.1198 123.18 25.4219C123.164 25.7188 123.151 25.9818 123.141 26.2109H123.195C123.305 26.0755 123.464 25.875 123.672 25.6094C123.885 25.3438 124.065 25.1302 124.211 24.9688L127.055 21.9375H128.578L125.133 25.5938L128.828 30.5H127.266L124.242 26.4453L123.203 27.3984V30.5H121.914V18.3438H123.203ZM135.859 28.1562C135.859 28.7031 135.721 29.1641 135.445 29.5391C135.174 29.9089 134.784 30.1875 134.273 30.375C133.768 30.5625 133.164 30.6562 132.461 30.6562C131.862 30.6562 131.344 30.6094 130.906 30.5156C130.469 30.4219 130.086 30.2891 129.758 30.1172V28.9219C130.107 29.0938 130.523 29.25 131.008 29.3906C131.492 29.5312 131.987 29.6016 132.492 29.6016C133.232 29.6016 133.768 29.4818 134.102 29.2422C134.435 29.0026 134.602 28.6771 134.602 28.2656C134.602 28.0312 134.534 27.8255 134.398 27.6484C134.268 27.4661 134.047 27.2917 133.734 27.125C133.422 26.9531 132.99 26.7656 132.438 26.5625C131.891 26.3542 131.417 26.1484 131.016 25.9453C130.62 25.737 130.312 25.4844 130.094 25.1875C129.88 24.8906 129.773 24.5052 129.773 24.0312C129.773 23.3073 130.065 22.7526 130.648 22.3672C131.237 21.9766 132.008 21.7812 132.961 21.7812C133.477 21.7812 133.958 21.8333 134.406 21.9375C134.859 22.0365 135.281 22.1719 135.672 22.3438L135.234 23.3828C134.88 23.2318 134.503 23.1042 134.102 23C133.701 22.8958 133.292 22.8438 132.875 22.8438C132.276 22.8438 131.815 22.9427 131.492 23.1406C131.174 23.3385 131.016 23.6094 131.016 23.9531C131.016 24.2188 131.089 24.4375 131.234 24.6094C131.385 24.7812 131.625 24.9427 131.953 25.0938C132.281 25.2448 132.714 25.4219 133.25 25.625C133.786 25.8229 134.25 26.0286 134.641 26.2422C135.031 26.4505 135.331 26.7057 135.539 27.0078C135.753 27.3047 135.859 27.6875 135.859 28.1562ZM145.148 30.6562C144.065 30.6562 143.206 30.2865 142.57 29.5469C141.94 28.8073 141.625 27.7083 141.625 26.25C141.625 24.776 141.948 23.6641 142.594 22.9141C143.24 22.1589 144.099 21.7812 145.172 21.7812C145.625 21.7812 146.021 21.8411 146.359 21.9609C146.698 22.0807 146.99 22.2422 147.234 22.4453C147.479 22.6432 147.685 22.8698 147.852 23.125H147.945C147.924 22.9635 147.904 22.7422 147.883 22.4609C147.862 22.1797 147.852 21.9505 147.852 21.7734V18.3438H149.148V30.5H148.102L147.906 29.2812H147.852C147.69 29.5365 147.484 29.7682 147.234 29.9766C146.99 30.1849 146.695 30.3516 146.352 30.4766C146.013 30.5964 145.612 30.6562 145.148 30.6562ZM145.352 29.5781C146.268 29.5781 146.917 29.3177 147.297 28.7969C147.677 28.276 147.867 27.5026 147.867 26.4766V26.2422C147.867 25.1536 147.685 24.3177 147.32 23.7344C146.961 23.151 146.305 22.8594 145.352 22.8594C144.555 22.8594 143.958 23.1667 143.562 23.7812C143.167 24.3906 142.969 25.224 142.969 26.2812C142.969 27.3333 143.164 28.1458 143.555 28.7188C143.951 29.2917 144.549 29.5781 145.352 29.5781ZM159.281 26.2031C159.281 26.9062 159.19 27.5339 159.008 28.0859C158.826 28.638 158.562 29.1042 158.219 29.4844C157.875 29.8646 157.458 30.1562 156.969 30.3594C156.484 30.5573 155.935 30.6562 155.32 30.6562C154.747 30.6562 154.221 30.5573 153.742 30.3594C153.268 30.1562 152.857 29.8646 152.508 29.4844C152.164 29.1042 151.896 28.638 151.703 28.0859C151.516 27.5339 151.422 26.9062 151.422 26.2031C151.422 25.2656 151.581 24.4688 151.898 23.8125C152.216 23.151 152.669 22.6484 153.258 22.3047C153.852 21.9557 154.557 21.7812 155.375 21.7812C156.156 21.7812 156.839 21.9557 157.422 22.3047C158.01 22.6536 158.466 23.1589 158.789 23.8203C159.117 24.4766 159.281 25.2708 159.281 26.2031ZM152.766 26.2031C152.766 26.8906 152.857 27.487 153.039 27.9922C153.221 28.4974 153.503 28.888 153.883 29.1641C154.263 29.4401 154.753 29.5781 155.352 29.5781C155.945 29.5781 156.432 29.4401 156.812 29.1641C157.198 28.888 157.482 28.4974 157.664 27.9922C157.846 27.487 157.938 26.8906 157.938 26.2031C157.938 25.5208 157.846 24.9323 157.664 24.4375C157.482 23.9375 157.201 23.5521 156.82 23.2812C156.44 23.0104 155.948 22.875 155.344 22.875C154.453 22.875 153.799 23.1693 153.383 23.7578C152.971 24.3464 152.766 25.1615 152.766 26.2031ZM165.578 21.7812C166.594 21.7812 167.362 22.0312 167.883 22.5312C168.404 23.026 168.664 23.8229 168.664 24.9219V30.5H167.383V25.0078C167.383 24.2943 167.219 23.7604 166.891 23.4062C166.568 23.0521 166.07 22.875 165.398 22.875C164.451 22.875 163.784 23.1432 163.398 23.6797C163.013 24.2161 162.82 24.9948 162.82 26.0156V30.5H161.523V21.9375H162.57L162.766 23.1719H162.836C163.018 22.8698 163.25 22.6172 163.531 22.4141C163.812 22.2057 164.128 22.0495 164.477 21.9453C164.826 21.8359 165.193 21.7812 165.578 21.7812ZM174.633 21.7812C175.362 21.7812 175.987 21.9427 176.508 22.2656C177.029 22.5885 177.427 23.0417 177.703 23.625C177.979 24.2031 178.117 24.8802 178.117 25.6562V26.4609H172.203C172.219 27.4661 172.469 28.2318 172.953 28.7578C173.438 29.2839 174.12 29.5469 175 29.5469C175.542 29.5469 176.021 29.4974 176.438 29.3984C176.854 29.2995 177.286 29.1536 177.734 28.9609V30.1016C177.302 30.2943 176.872 30.4349 176.445 30.5234C176.023 30.612 175.523 30.6562 174.945 30.6562C174.122 30.6562 173.404 30.4896 172.789 30.1562C172.18 29.8177 171.706 29.3229 171.367 28.6719C171.029 28.0208 170.859 27.224 170.859 26.2812C170.859 25.3594 171.013 24.5625 171.32 23.8906C171.633 23.2135 172.07 22.6927 172.633 22.3281C173.201 21.9635 173.867 21.7812 174.633 21.7812ZM174.617 22.8438C173.924 22.8438 173.372 23.0703 172.961 23.5234C172.549 23.9766 172.305 24.6094 172.227 25.4219H176.758C176.753 24.9115 176.672 24.4635 176.516 24.0781C176.365 23.6875 176.133 23.3854 175.82 23.1719C175.508 22.9531 175.107 22.8438 174.617 22.8438Z" fill="#A8A8A8"/>
</svg>
