<svg width="252" height="48" viewBox="0 0 252 48" fill="none" xmlns="http://www.w3.org/2000/svg">
<g filter="url(#filter0_d_83_11035)">
<path d="M55.9922 30.5H54.4609L48.2344 20.9062H48.1719C48.1875 21.1615 48.2057 21.4531 48.2266 21.7812C48.2474 22.1042 48.263 22.4505 48.2734 22.8203C48.2891 23.1849 48.2969 23.5573 48.2969 23.9375V30.5H47.0625V19.0781H48.5859L54.7891 28.6406H54.8438C54.8333 28.4583 54.8203 28.2005 54.8047 27.8672C54.7891 27.5286 54.7734 27.1667 54.7578 26.7812C54.7474 26.3906 54.7422 26.0286 54.7422 25.6953V19.0781H55.9922V30.5ZM66.2969 26.2031C66.2969 26.9062 66.2057 27.5339 66.0234 28.0859C65.8411 28.638 65.5781 29.1042 65.2344 29.4844C64.8906 29.8646 64.474 30.1562 63.9844 30.3594C63.5 30.5573 62.9505 30.6562 62.3359 30.6562C61.763 30.6562 61.237 30.5573 60.7578 30.3594C60.2839 30.1562 59.8724 29.8646 59.5234 29.4844C59.1797 29.1042 58.9115 28.638 58.7188 28.0859C58.5312 27.5339 58.4375 26.9062 58.4375 26.2031C58.4375 25.2656 58.5964 24.4688 58.9141 23.8125C59.2318 23.151 59.6849 22.6484 60.2734 22.3047C60.8672 21.9557 61.5729 21.7812 62.3906 21.7812C63.1719 21.7812 63.8542 21.9557 64.4375 22.3047C65.026 22.6536 65.4818 23.1589 65.8047 23.8203C66.1328 24.4766 66.2969 25.2708 66.2969 26.2031ZM59.7812 26.2031C59.7812 26.8906 59.8724 27.487 60.0547 27.9922C60.237 28.4974 60.5182 28.888 60.8984 29.1641C61.2786 29.4401 61.7682 29.5781 62.3672 29.5781C62.9609 29.5781 63.4479 29.4401 63.8281 29.1641C64.2135 28.888 64.4974 28.4974 64.6797 27.9922C64.862 27.487 64.9531 26.8906 64.9531 26.2031C64.9531 25.5208 64.862 24.9323 64.6797 24.4375C64.4974 23.9375 64.2161 23.5521 63.8359 23.2812C63.4557 23.0104 62.9635 22.875 62.3594 22.875C61.4688 22.875 60.8151 23.1693 60.3984 23.7578C59.987 24.3464 59.7812 25.1615 59.7812 26.2031ZM75.4609 29.5938C75.6745 29.5938 75.8932 29.5755 76.1172 29.5391C76.3411 29.5026 76.5234 29.4583 76.6641 29.4062V30.4141C76.513 30.4818 76.3021 30.5391 76.0312 30.5859C75.7656 30.6328 75.5052 30.6562 75.25 30.6562C74.7969 30.6562 74.3854 30.5781 74.0156 30.4219C73.6458 30.2604 73.349 29.9896 73.125 29.6094C72.9062 29.2292 72.7969 28.7031 72.7969 28.0312V22.9531H71.5781V22.3203L72.8047 21.8125L73.3203 19.9531H74.1016V21.9375H76.6094V22.9531H74.1016V27.9922C74.1016 28.5286 74.224 28.9297 74.4688 29.1953C74.7188 29.4609 75.0495 29.5938 75.4609 29.5938ZM81.6016 21.7969C82.6224 21.7969 83.3802 22.026 83.875 22.4844C84.3698 22.9427 84.6172 23.6745 84.6172 24.6797V30.5H83.6719L83.4219 29.2344H83.3594C83.1198 29.5469 82.8698 29.8099 82.6094 30.0234C82.349 30.2318 82.0469 30.3906 81.7031 30.5C81.3646 30.6042 80.9479 30.6562 80.4531 30.6562C79.9323 30.6562 79.4688 30.5651 79.0625 30.3828C78.6615 30.2005 78.3438 29.9245 78.1094 29.5547C77.8802 29.1849 77.7656 28.7161 77.7656 28.1484C77.7656 27.2943 78.1042 26.638 78.7812 26.1797C79.4583 25.7214 80.4896 25.4714 81.875 25.4297L83.3516 25.3672V24.8438C83.3516 24.1042 83.1927 23.5859 82.875 23.2891C82.5573 22.9922 82.1094 22.8438 81.5312 22.8438C81.0833 22.8438 80.6562 22.9089 80.25 23.0391C79.8438 23.1693 79.4583 23.3229 79.0938 23.5L78.6953 22.5156C79.0807 22.3177 79.5234 22.1484 80.0234 22.0078C80.5234 21.8672 81.0495 21.7969 81.6016 21.7969ZM83.3359 26.2812L82.0312 26.3359C80.9635 26.3776 80.2109 26.5521 79.7734 26.8594C79.3359 27.1667 79.1172 27.6016 79.1172 28.1641C79.1172 28.6536 79.2656 29.0156 79.5625 29.25C79.8594 29.4844 80.2526 29.6016 80.7422 29.6016C81.5026 29.6016 82.125 29.3906 82.6094 28.9688C83.0938 28.5469 83.3359 27.9141 83.3359 27.0703V26.2812ZM92.8281 28.1562C92.8281 28.7031 92.6901 29.1641 92.4141 29.5391C92.1432 29.9089 91.7526 30.1875 91.2422 30.375C90.737 30.5625 90.1328 30.6562 89.4297 30.6562C88.8307 30.6562 88.3125 30.6094 87.875 30.5156C87.4375 30.4219 87.0547 30.2891 86.7266 30.1172V28.9219C87.0755 29.0938 87.4922 29.25 87.9766 29.3906C88.4609 29.5312 88.9557 29.6016 89.4609 29.6016C90.2005 29.6016 90.737 29.4818 91.0703 29.2422C91.4036 29.0026 91.5703 28.6771 91.5703 28.2656C91.5703 28.0312 91.5026 27.8255 91.3672 27.6484C91.237 27.4661 91.0156 27.2917 90.7031 27.125C90.3906 26.9531 89.9583 26.7656 89.4062 26.5625C88.8594 26.3542 88.3854 26.1484 87.9844 25.9453C87.5885 25.737 87.2812 25.4844 87.0625 25.1875C86.849 24.8906 86.7422 24.5052 86.7422 24.0312C86.7422 23.3073 87.0339 22.7526 87.6172 22.3672C88.2057 21.9766 88.9766 21.7812 89.9297 21.7812C90.4453 21.7812 90.9271 21.8333 91.375 21.9375C91.8281 22.0365 92.25 22.1719 92.6406 22.3438L92.2031 23.3828C91.849 23.2318 91.4714 23.1042 91.0703 23C90.6693 22.8958 90.2604 22.8438 89.8438 22.8438C89.2448 22.8438 88.7839 22.9427 88.4609 23.1406C88.1432 23.3385 87.9844 23.6094 87.9844 23.9531C87.9844 24.2188 88.0573 24.4375 88.2031 24.6094C88.3542 24.7812 88.5938 24.9427 88.9219 25.0938C89.25 25.2448 89.6823 25.4219 90.2188 25.625C90.7552 25.8229 91.2188 26.0286 91.6094 26.2422C92 26.4505 92.2995 26.7057 92.5078 27.0078C92.7214 27.3047 92.8281 27.6875 92.8281 28.1562ZM96.2031 18.3438V24.6562C96.2031 24.8646 96.1953 25.1198 96.1797 25.4219C96.1641 25.7188 96.151 25.9818 96.1406 26.2109H96.1953C96.3047 26.0755 96.4635 25.875 96.6719 25.6094C96.8854 25.3438 97.0651 25.1302 97.2109 24.9688L100.055 21.9375H101.578L98.1328 25.5938L101.828 30.5H100.266L97.2422 26.4453L96.2031 27.3984V30.5H94.9141V18.3438H96.2031ZM108.859 28.1562C108.859 28.7031 108.721 29.1641 108.445 29.5391C108.174 29.9089 107.784 30.1875 107.273 30.375C106.768 30.5625 106.164 30.6562 105.461 30.6562C104.862 30.6562 104.344 30.6094 103.906 30.5156C103.469 30.4219 103.086 30.2891 102.758 30.1172V28.9219C103.107 29.0938 103.523 29.25 104.008 29.3906C104.492 29.5312 104.987 29.6016 105.492 29.6016C106.232 29.6016 106.768 29.4818 107.102 29.2422C107.435 29.0026 107.602 28.6771 107.602 28.2656C107.602 28.0312 107.534 27.8255 107.398 27.6484C107.268 27.4661 107.047 27.2917 106.734 27.125C106.422 26.9531 105.99 26.7656 105.438 26.5625C104.891 26.3542 104.417 26.1484 104.016 25.9453C103.62 25.737 103.312 25.4844 103.094 25.1875C102.88 24.8906 102.773 24.5052 102.773 24.0312C102.773 23.3073 103.065 22.7526 103.648 22.3672C104.237 21.9766 105.008 21.7812 105.961 21.7812C106.477 21.7812 106.958 21.8333 107.406 21.9375C107.859 22.0365 108.281 22.1719 108.672 22.3438L108.234 23.3828C107.88 23.2318 107.503 23.1042 107.102 23C106.701 22.8958 106.292 22.8438 105.875 22.8438C105.276 22.8438 104.815 22.9427 104.492 23.1406C104.174 23.3385 104.016 23.6094 104.016 23.9531C104.016 24.2188 104.089 24.4375 104.234 24.6094C104.385 24.7812 104.625 24.9427 104.953 25.0938C105.281 25.2448 105.714 25.4219 106.25 25.625C106.786 25.8229 107.25 26.0286 107.641 26.2422C108.031 26.4505 108.331 26.7057 108.539 27.0078C108.753 27.3047 108.859 27.6875 108.859 28.1562ZM116.398 21.9375V30.5H115.102V21.9375H116.398ZM115.766 18.7344C115.979 18.7344 116.161 18.8047 116.312 18.9453C116.469 19.0807 116.547 19.2943 116.547 19.5859C116.547 19.8724 116.469 20.0859 116.312 20.2266C116.161 20.3672 115.979 20.4375 115.766 20.4375C115.542 20.4375 115.354 20.3672 115.203 20.2266C115.057 20.0859 114.984 19.8724 114.984 19.5859C114.984 19.2943 115.057 19.0807 115.203 18.9453C115.354 18.8047 115.542 18.7344 115.766 18.7344ZM123.203 21.7812C124.219 21.7812 124.987 22.0312 125.508 22.5312C126.029 23.026 126.289 23.8229 126.289 24.9219V30.5H125.008V25.0078C125.008 24.2943 124.844 23.7604 124.516 23.4062C124.193 23.0521 123.695 22.875 123.023 22.875C122.076 22.875 121.409 23.1432 121.023 23.6797C120.638 24.2161 120.445 24.9948 120.445 26.0156V30.5H119.148V21.9375H120.195L120.391 23.1719H120.461C120.643 22.8698 120.875 22.6172 121.156 22.4141C121.438 22.2057 121.753 22.0495 122.102 21.9453C122.451 21.8359 122.818 21.7812 123.203 21.7812ZM137.141 21.7812C138.208 21.7812 139.06 22.1484 139.695 22.8828C140.331 23.6172 140.648 24.7214 140.648 26.1953C140.648 27.1693 140.503 27.987 140.211 28.6484C139.919 29.3099 139.508 29.8099 138.977 30.1484C138.451 30.487 137.828 30.6562 137.109 30.6562C136.656 30.6562 136.258 30.5964 135.914 30.4766C135.57 30.3568 135.276 30.1953 135.031 29.9922C134.786 29.7891 134.583 29.5677 134.422 29.3281H134.328C134.344 29.5312 134.362 29.776 134.383 30.0625C134.409 30.349 134.422 30.599 134.422 30.8125V34.3281H133.117V21.9375H134.188L134.359 23.2031H134.422C134.589 22.9427 134.792 22.7057 135.031 22.4922C135.271 22.2734 135.562 22.1016 135.906 21.9766C136.255 21.8464 136.667 21.7812 137.141 21.7812ZM136.914 22.875C136.32 22.875 135.841 22.9896 135.477 23.2188C135.117 23.4479 134.854 23.7917 134.688 24.25C134.521 24.7031 134.432 25.2734 134.422 25.9609V26.2109C134.422 26.9349 134.5 27.5469 134.656 28.0469C134.818 28.5469 135.081 28.9271 135.445 29.1875C135.815 29.4479 136.31 29.5781 136.93 29.5781C137.461 29.5781 137.904 29.4349 138.258 29.1484C138.612 28.862 138.875 28.4635 139.047 27.9531C139.224 27.4375 139.312 26.8464 139.312 26.1797C139.312 25.1693 139.115 24.3672 138.719 23.7734C138.328 23.1745 137.727 22.875 136.914 22.875ZM146.805 21.7812C146.977 21.7812 147.156 21.7917 147.344 21.8125C147.531 21.8281 147.698 21.8516 147.844 21.8828L147.68 23.0859C147.539 23.0495 147.383 23.0208 147.211 23C147.039 22.9792 146.878 22.9688 146.727 22.9688C146.383 22.9688 146.057 23.0391 145.75 23.1797C145.448 23.3151 145.182 23.513 144.953 23.7734C144.724 24.0286 144.544 24.3385 144.414 24.7031C144.284 25.0625 144.219 25.4635 144.219 25.9062V30.5H142.914V21.9375H143.992L144.133 23.5156H144.188C144.365 23.1979 144.578 22.9089 144.828 22.6484C145.078 22.3828 145.367 22.1719 145.695 22.0156C146.029 21.8594 146.398 21.7812 146.805 21.7812ZM156.844 26.2031C156.844 26.9062 156.753 27.5339 156.57 28.0859C156.388 28.638 156.125 29.1042 155.781 29.4844C155.438 29.8646 155.021 30.1562 154.531 30.3594C154.047 30.5573 153.497 30.6562 152.883 30.6562C152.31 30.6562 151.784 30.5573 151.305 30.3594C150.831 30.1562 150.419 29.8646 150.07 29.4844C149.727 29.1042 149.458 28.638 149.266 28.0859C149.078 27.5339 148.984 26.9062 148.984 26.2031C148.984 25.2656 149.143 24.4688 149.461 23.8125C149.779 23.151 150.232 22.6484 150.82 22.3047C151.414 21.9557 152.12 21.7812 152.938 21.7812C153.719 21.7812 154.401 21.9557 154.984 22.3047C155.573 22.6536 156.029 23.1589 156.352 23.8203C156.68 24.4766 156.844 25.2708 156.844 26.2031ZM150.328 26.2031C150.328 26.8906 150.419 27.487 150.602 27.9922C150.784 28.4974 151.065 28.888 151.445 29.1641C151.826 29.4401 152.315 29.5781 152.914 29.5781C153.508 29.5781 153.995 29.4401 154.375 29.1641C154.76 28.888 155.044 28.4974 155.227 27.9922C155.409 27.487 155.5 26.8906 155.5 26.2031C155.5 25.5208 155.409 24.9323 155.227 24.4375C155.044 23.9375 154.763 23.5521 154.383 23.2812C154.003 23.0104 153.51 22.875 152.906 22.875C152.016 22.875 151.362 23.1693 150.945 23.7578C150.534 24.3464 150.328 25.1615 150.328 26.2031ZM161.477 34.3438C160.352 34.3438 159.484 34.1328 158.875 33.7109C158.266 33.2943 157.961 32.7083 157.961 31.9531C157.961 31.4167 158.13 30.9583 158.469 30.5781C158.812 30.1979 159.286 29.9453 159.891 29.8203C159.667 29.7161 159.474 29.5599 159.312 29.3516C159.156 29.1432 159.078 28.9036 159.078 28.6328C159.078 28.3203 159.164 28.0469 159.336 27.8125C159.513 27.5729 159.781 27.3438 160.141 27.125C159.693 26.9427 159.328 26.6354 159.047 26.2031C158.771 25.7656 158.633 25.2578 158.633 24.6797C158.633 24.0651 158.76 23.5417 159.016 23.1094C159.271 22.6719 159.641 22.3385 160.125 22.1094C160.609 21.8802 161.195 21.7656 161.883 21.7656C162.034 21.7656 162.185 21.7734 162.336 21.7891C162.492 21.7995 162.641 21.8177 162.781 21.8438C162.922 21.8646 163.044 21.8906 163.148 21.9219H166.086V22.7578L164.508 22.9531C164.664 23.1562 164.794 23.401 164.898 23.6875C165.003 23.974 165.055 24.2917 165.055 24.6406C165.055 25.4948 164.766 26.1745 164.188 26.6797C163.609 27.1797 162.815 27.4297 161.805 27.4297C161.565 27.4297 161.32 27.4089 161.07 27.3672C160.815 27.5078 160.62 27.6641 160.484 27.8359C160.354 28.0078 160.289 28.2057 160.289 28.4297C160.289 28.5964 160.339 28.7292 160.438 28.8281C160.542 28.9271 160.69 29 160.883 29.0469C161.076 29.0885 161.307 29.1094 161.578 29.1094H163.086C164.018 29.1094 164.732 29.3047 165.227 29.6953C165.727 30.0859 165.977 30.6562 165.977 31.4062C165.977 32.3542 165.591 33.0807 164.82 33.5859C164.049 34.0911 162.935 34.3438 161.477 34.3438ZM161.516 33.3281C162.224 33.3281 162.81 33.2552 163.273 33.1094C163.742 32.9688 164.091 32.763 164.32 32.4922C164.555 32.2266 164.672 31.9089 164.672 31.5391C164.672 31.1953 164.594 30.9349 164.438 30.7578C164.281 30.5859 164.052 30.4714 163.75 30.4141C163.448 30.3516 163.078 30.3203 162.641 30.3203H161.156C160.771 30.3203 160.435 30.3802 160.148 30.5C159.862 30.6198 159.641 30.7969 159.484 31.0312C159.333 31.2656 159.258 31.5573 159.258 31.9062C159.258 32.3698 159.453 32.7214 159.844 32.9609C160.234 33.2057 160.792 33.3281 161.516 33.3281ZM161.852 26.4844C162.471 26.4844 162.938 26.3281 163.25 26.0156C163.562 25.7031 163.719 25.2474 163.719 24.6484C163.719 24.0078 163.56 23.5286 163.242 23.2109C162.924 22.888 162.456 22.7266 161.836 22.7266C161.242 22.7266 160.784 22.8932 160.461 23.2266C160.143 23.5547 159.984 24.0365 159.984 24.6719C159.984 25.2552 160.146 25.7031 160.469 26.0156C160.792 26.3281 161.253 26.4844 161.852 26.4844ZM171.664 21.7812C171.836 21.7812 172.016 21.7917 172.203 21.8125C172.391 21.8281 172.557 21.8516 172.703 21.8828L172.539 23.0859C172.398 23.0495 172.242 23.0208 172.07 23C171.898 22.9792 171.737 22.9688 171.586 22.9688C171.242 22.9688 170.917 23.0391 170.609 23.1797C170.307 23.3151 170.042 23.513 169.812 23.7734C169.583 24.0286 169.404 24.3385 169.273 24.7031C169.143 25.0625 169.078 25.4635 169.078 25.9062V30.5H167.773V21.9375H168.852L168.992 23.5156H169.047C169.224 23.1979 169.438 22.9089 169.688 22.6484C169.938 22.3828 170.227 22.1719 170.555 22.0156C170.888 21.8594 171.258 21.7812 171.664 21.7812ZM177.617 21.7812C178.346 21.7812 178.971 21.9427 179.492 22.2656C180.013 22.5885 180.411 23.0417 180.688 23.625C180.964 24.2031 181.102 24.8802 181.102 25.6562V26.4609H175.188C175.203 27.4661 175.453 28.2318 175.938 28.7578C176.422 29.2839 177.104 29.5469 177.984 29.5469C178.526 29.5469 179.005 29.4974 179.422 29.3984C179.839 29.2995 180.271 29.1536 180.719 28.9609V30.1016C180.286 30.2943 179.857 30.4349 179.43 30.5234C179.008 30.612 178.508 30.6562 177.93 30.6562C177.107 30.6562 176.388 30.4896 175.773 30.1562C175.164 29.8177 174.69 29.3229 174.352 28.6719C174.013 28.0208 173.844 27.224 173.844 26.2812C173.844 25.3594 173.997 24.5625 174.305 23.8906C174.617 23.2135 175.055 22.6927 175.617 22.3281C176.185 21.9635 176.852 21.7812 177.617 21.7812ZM177.602 22.8438C176.909 22.8438 176.357 23.0703 175.945 23.5234C175.534 23.9766 175.289 24.6094 175.211 25.4219H179.742C179.737 24.9115 179.656 24.4635 179.5 24.0781C179.349 23.6875 179.117 23.3854 178.805 23.1719C178.492 22.9531 178.091 22.8438 177.602 22.8438ZM188.844 28.1562C188.844 28.7031 188.706 29.1641 188.43 29.5391C188.159 29.9089 187.768 30.1875 187.258 30.375C186.753 30.5625 186.148 30.6562 185.445 30.6562C184.846 30.6562 184.328 30.6094 183.891 30.5156C183.453 30.4219 183.07 30.2891 182.742 30.1172V28.9219C183.091 29.0938 183.508 29.25 183.992 29.3906C184.477 29.5312 184.971 29.6016 185.477 29.6016C186.216 29.6016 186.753 29.4818 187.086 29.2422C187.419 29.0026 187.586 28.6771 187.586 28.2656C187.586 28.0312 187.518 27.8255 187.383 27.6484C187.253 27.4661 187.031 27.2917 186.719 27.125C186.406 26.9531 185.974 26.7656 185.422 26.5625C184.875 26.3542 184.401 26.1484 184 25.9453C183.604 25.737 183.297 25.4844 183.078 25.1875C182.865 24.8906 182.758 24.5052 182.758 24.0312C182.758 23.3073 183.049 22.7526 183.633 22.3672C184.221 21.9766 184.992 21.7812 185.945 21.7812C186.461 21.7812 186.943 21.8333 187.391 21.9375C187.844 22.0365 188.266 22.1719 188.656 22.3438L188.219 23.3828C187.865 23.2318 187.487 23.1042 187.086 23C186.685 22.8958 186.276 22.8438 185.859 22.8438C185.26 22.8438 184.799 22.9427 184.477 23.1406C184.159 23.3385 184 23.6094 184 23.9531C184 24.2188 184.073 24.4375 184.219 24.6094C184.37 24.7812 184.609 24.9427 184.938 25.0938C185.266 25.2448 185.698 25.4219 186.234 25.625C186.771 25.8229 187.234 26.0286 187.625 26.2422C188.016 26.4505 188.315 26.7057 188.523 27.0078C188.737 27.3047 188.844 27.6875 188.844 28.1562ZM196.469 28.1562C196.469 28.7031 196.331 29.1641 196.055 29.5391C195.784 29.9089 195.393 30.1875 194.883 30.375C194.378 30.5625 193.773 30.6562 193.07 30.6562C192.471 30.6562 191.953 30.6094 191.516 30.5156C191.078 30.4219 190.695 30.2891 190.367 30.1172V28.9219C190.716 29.0938 191.133 29.25 191.617 29.3906C192.102 29.5312 192.596 29.6016 193.102 29.6016C193.841 29.6016 194.378 29.4818 194.711 29.2422C195.044 29.0026 195.211 28.6771 195.211 28.2656C195.211 28.0312 195.143 27.8255 195.008 27.6484C194.878 27.4661 194.656 27.2917 194.344 27.125C194.031 26.9531 193.599 26.7656 193.047 26.5625C192.5 26.3542 192.026 26.1484 191.625 25.9453C191.229 25.737 190.922 25.4844 190.703 25.1875C190.49 24.8906 190.383 24.5052 190.383 24.0312C190.383 23.3073 190.674 22.7526 191.258 22.3672C191.846 21.9766 192.617 21.7812 193.57 21.7812C194.086 21.7812 194.568 21.8333 195.016 21.9375C195.469 22.0365 195.891 22.1719 196.281 22.3438L195.844 23.3828C195.49 23.2318 195.112 23.1042 194.711 23C194.31 22.8958 193.901 22.8438 193.484 22.8438C192.885 22.8438 192.424 22.9427 192.102 23.1406C191.784 23.3385 191.625 23.6094 191.625 23.9531C191.625 24.2188 191.698 24.4375 191.844 24.6094C191.995 24.7812 192.234 24.9427 192.562 25.0938C192.891 25.2448 193.323 25.4219 193.859 25.625C194.396 25.8229 194.859 26.0286 195.25 26.2422C195.641 26.4505 195.94 26.7057 196.148 27.0078C196.362 27.3047 196.469 27.6875 196.469 28.1562ZM201.852 21.7812C202.581 21.7812 203.206 21.9427 203.727 22.2656C204.247 22.5885 204.646 23.0417 204.922 23.625C205.198 24.2031 205.336 24.8802 205.336 25.6562V26.4609H199.422C199.438 27.4661 199.688 28.2318 200.172 28.7578C200.656 29.2839 201.339 29.5469 202.219 29.5469C202.76 29.5469 203.24 29.4974 203.656 29.3984C204.073 29.2995 204.505 29.1536 204.953 28.9609V30.1016C204.521 30.2943 204.091 30.4349 203.664 30.5234C203.242 30.612 202.742 30.6562 202.164 30.6562C201.341 30.6562 200.622 30.4896 200.008 30.1562C199.398 29.8177 198.924 29.3229 198.586 28.6719C198.247 28.0208 198.078 27.224 198.078 26.2812C198.078 25.3594 198.232 24.5625 198.539 23.8906C198.852 23.2135 199.289 22.6927 199.852 22.3281C200.419 21.9635 201.086 21.7812 201.852 21.7812ZM201.836 22.8438C201.143 22.8438 200.591 23.0703 200.18 23.5234C199.768 23.9766 199.523 24.6094 199.445 25.4219H203.977C203.971 24.9115 203.891 24.4635 203.734 24.0781C203.583 23.6875 203.352 23.3854 203.039 23.1719C202.727 22.9531 202.326 22.8438 201.836 22.8438Z" fill="#A8A8A8"/>
</g>
<defs>
<filter id="filter0_d_83_11035" x="-4" y="-4" width="260" height="56" filterUnits="userSpaceOnUse" color-interpolation-filters="sRGB">
<feFlood flood-opacity="0" result="BackgroundImageFix"/>
<feColorMatrix in="SourceAlpha" type="matrix" values="0 0 0 0 0 0 0 0 0 0 0 0 0 0 0 0 0 0 127 0" result="hardAlpha"/>
<feOffset/>
<feGaussianBlur stdDeviation="2"/>
<feColorMatrix type="matrix" values="0 0 0 0 0 0 0 0 0 0 0 0 0 0 0 0 0 0 0.16 0"/>
<feBlend mode="normal" in2="BackgroundImageFix" result="effect1_dropShadow_83_11035"/>
<feBlend mode="normal" in="SourceGraphic" in2="effect1_dropShadow_83_11035" result="shape"/>
</filter>
</defs>
</svg>
