<svg width="252" height="48" viewBox="0 0 252 48" fill="none" xmlns="http://www.w3.org/2000/svg">
<path d="M82.4922 30.5H80.9609L74.7344 20.9062H74.6719C74.6875 21.1615 74.7057 21.4531 74.7266 21.7812C74.7474 22.1042 74.763 22.4505 74.7734 22.8203C74.7891 23.1849 74.7969 23.5573 74.7969 23.9375V30.5H73.5625V19.0781H75.0859L81.2891 28.6406H81.3438C81.3333 28.4583 81.3203 28.2005 81.3047 27.8672C81.2891 27.5286 81.2734 27.1667 81.2578 26.7812C81.2474 26.3906 81.2422 26.0286 81.2422 25.6953V19.0781H82.4922V30.5ZM92.7969 26.2031C92.7969 26.9062 92.7057 27.5339 92.5234 28.0859C92.3411 28.638 92.0781 29.1042 91.7344 29.4844C91.3906 29.8646 90.974 30.1562 90.4844 30.3594C90 30.5573 89.4505 30.6562 88.8359 30.6562C88.263 30.6562 87.737 30.5573 87.2578 30.3594C86.7839 30.1562 86.3724 29.8646 86.0234 29.4844C85.6797 29.1042 85.4115 28.638 85.2188 28.0859C85.0312 27.5339 84.9375 26.9062 84.9375 26.2031C84.9375 25.2656 85.0964 24.4688 85.4141 23.8125C85.7318 23.151 86.1849 22.6484 86.7734 22.3047C87.3672 21.9557 88.0729 21.7812 88.8906 21.7812C89.6719 21.7812 90.3542 21.9557 90.9375 22.3047C91.526 22.6536 91.9818 23.1589 92.3047 23.8203C92.6328 24.4766 92.7969 25.2708 92.7969 26.2031ZM86.2812 26.2031C86.2812 26.8906 86.3724 27.487 86.5547 27.9922C86.737 28.4974 87.0182 28.888 87.3984 29.1641C87.7786 29.4401 88.2682 29.5781 88.8672 29.5781C89.4609 29.5781 89.9479 29.4401 90.3281 29.1641C90.7135 28.888 90.9974 28.4974 91.1797 27.9922C91.362 27.487 91.4531 26.8906 91.4531 26.2031C91.4531 25.5208 91.362 24.9323 91.1797 24.4375C90.9974 23.9375 90.7161 23.5521 90.3359 23.2812C89.9557 23.0104 89.4635 22.875 88.8594 22.875C87.9688 22.875 87.3151 23.1693 86.8984 23.7578C86.487 24.3464 86.2812 25.1615 86.2812 26.2031ZM101.961 29.5938C102.174 29.5938 102.393 29.5755 102.617 29.5391C102.841 29.5026 103.023 29.4583 103.164 29.4062V30.4141C103.013 30.4818 102.802 30.5391 102.531 30.5859C102.266 30.6328 102.005 30.6562 101.75 30.6562C101.297 30.6562 100.885 30.5781 100.516 30.4219C100.146 30.2604 99.849 29.9896 99.625 29.6094C99.4062 29.2292 99.2969 28.7031 99.2969 28.0312V22.9531H98.0781V22.3203L99.3047 21.8125L99.8203 19.9531H100.602V21.9375H103.109V22.9531H100.602V27.9922C100.602 28.5286 100.724 28.9297 100.969 29.1953C101.219 29.4609 101.549 29.5938 101.961 29.5938ZM108.102 21.7969C109.122 21.7969 109.88 22.026 110.375 22.4844C110.87 22.9427 111.117 23.6745 111.117 24.6797V30.5H110.172L109.922 29.2344H109.859C109.62 29.5469 109.37 29.8099 109.109 30.0234C108.849 30.2318 108.547 30.3906 108.203 30.5C107.865 30.6042 107.448 30.6562 106.953 30.6562C106.432 30.6562 105.969 30.5651 105.562 30.3828C105.161 30.2005 104.844 29.9245 104.609 29.5547C104.38 29.1849 104.266 28.7161 104.266 28.1484C104.266 27.2943 104.604 26.638 105.281 26.1797C105.958 25.7214 106.99 25.4714 108.375 25.4297L109.852 25.3672V24.8438C109.852 24.1042 109.693 23.5859 109.375 23.2891C109.057 22.9922 108.609 22.8438 108.031 22.8438C107.583 22.8438 107.156 22.9089 106.75 23.0391C106.344 23.1693 105.958 23.3229 105.594 23.5L105.195 22.5156C105.581 22.3177 106.023 22.1484 106.523 22.0078C107.023 21.8672 107.549 21.7969 108.102 21.7969ZM109.836 26.2812L108.531 26.3359C107.464 26.3776 106.711 26.5521 106.273 26.8594C105.836 27.1667 105.617 27.6016 105.617 28.1641C105.617 28.6536 105.766 29.0156 106.062 29.25C106.359 29.4844 106.753 29.6016 107.242 29.6016C108.003 29.6016 108.625 29.3906 109.109 28.9688C109.594 28.5469 109.836 27.9141 109.836 27.0703V26.2812ZM119.328 28.1562C119.328 28.7031 119.19 29.1641 118.914 29.5391C118.643 29.9089 118.253 30.1875 117.742 30.375C117.237 30.5625 116.633 30.6562 115.93 30.6562C115.331 30.6562 114.812 30.6094 114.375 30.5156C113.938 30.4219 113.555 30.2891 113.227 30.1172V28.9219C113.576 29.0938 113.992 29.25 114.477 29.3906C114.961 29.5312 115.456 29.6016 115.961 29.6016C116.701 29.6016 117.237 29.4818 117.57 29.2422C117.904 29.0026 118.07 28.6771 118.07 28.2656C118.07 28.0312 118.003 27.8255 117.867 27.6484C117.737 27.4661 117.516 27.2917 117.203 27.125C116.891 26.9531 116.458 26.7656 115.906 26.5625C115.359 26.3542 114.885 26.1484 114.484 25.9453C114.089 25.737 113.781 25.4844 113.562 25.1875C113.349 24.8906 113.242 24.5052 113.242 24.0312C113.242 23.3073 113.534 22.7526 114.117 22.3672C114.706 21.9766 115.477 21.7812 116.43 21.7812C116.945 21.7812 117.427 21.8333 117.875 21.9375C118.328 22.0365 118.75 22.1719 119.141 22.3438L118.703 23.3828C118.349 23.2318 117.971 23.1042 117.57 23C117.169 22.8958 116.76 22.8438 116.344 22.8438C115.745 22.8438 115.284 22.9427 114.961 23.1406C114.643 23.3385 114.484 23.6094 114.484 23.9531C114.484 24.2188 114.557 24.4375 114.703 24.6094C114.854 24.7812 115.094 24.9427 115.422 25.0938C115.75 25.2448 116.182 25.4219 116.719 25.625C117.255 25.8229 117.719 26.0286 118.109 26.2422C118.5 26.4505 118.799 26.7057 119.008 27.0078C119.221 27.3047 119.328 27.6875 119.328 28.1562ZM122.703 18.3438V24.6562C122.703 24.8646 122.695 25.1198 122.68 25.4219C122.664 25.7188 122.651 25.9818 122.641 26.2109H122.695C122.805 26.0755 122.964 25.875 123.172 25.6094C123.385 25.3438 123.565 25.1302 123.711 24.9688L126.555 21.9375H128.078L124.633 25.5938L128.328 30.5H126.766L123.742 26.4453L122.703 27.3984V30.5H121.414V18.3438H122.703ZM135.359 28.1562C135.359 28.7031 135.221 29.1641 134.945 29.5391C134.674 29.9089 134.284 30.1875 133.773 30.375C133.268 30.5625 132.664 30.6562 131.961 30.6562C131.362 30.6562 130.844 30.6094 130.406 30.5156C129.969 30.4219 129.586 30.2891 129.258 30.1172V28.9219C129.607 29.0938 130.023 29.25 130.508 29.3906C130.992 29.5312 131.487 29.6016 131.992 29.6016C132.732 29.6016 133.268 29.4818 133.602 29.2422C133.935 29.0026 134.102 28.6771 134.102 28.2656C134.102 28.0312 134.034 27.8255 133.898 27.6484C133.768 27.4661 133.547 27.2917 133.234 27.125C132.922 26.9531 132.49 26.7656 131.938 26.5625C131.391 26.3542 130.917 26.1484 130.516 25.9453C130.12 25.737 129.812 25.4844 129.594 25.1875C129.38 24.8906 129.273 24.5052 129.273 24.0312C129.273 23.3073 129.565 22.7526 130.148 22.3672C130.737 21.9766 131.508 21.7812 132.461 21.7812C132.977 21.7812 133.458 21.8333 133.906 21.9375C134.359 22.0365 134.781 22.1719 135.172 22.3438L134.734 23.3828C134.38 23.2318 134.003 23.1042 133.602 23C133.201 22.8958 132.792 22.8438 132.375 22.8438C131.776 22.8438 131.315 22.9427 130.992 23.1406C130.674 23.3385 130.516 23.6094 130.516 23.9531C130.516 24.2188 130.589 24.4375 130.734 24.6094C130.885 24.7812 131.125 24.9427 131.453 25.0938C131.781 25.2448 132.214 25.4219 132.75 25.625C133.286 25.8229 133.75 26.0286 134.141 26.2422C134.531 26.4505 134.831 26.7057 135.039 27.0078C135.253 27.3047 135.359 27.6875 135.359 28.1562ZM144.367 29.5938C144.581 29.5938 144.799 29.5755 145.023 29.5391C145.247 29.5026 145.43 29.4583 145.57 29.4062V30.4141C145.419 30.4818 145.208 30.5391 144.938 30.5859C144.672 30.6328 144.411 30.6562 144.156 30.6562C143.703 30.6562 143.292 30.5781 142.922 30.4219C142.552 30.2604 142.255 29.9896 142.031 29.6094C141.812 29.2292 141.703 28.7031 141.703 28.0312V22.9531H140.484V22.3203L141.711 21.8125L142.227 19.9531H143.008V21.9375H145.516V22.9531H143.008V27.9922C143.008 28.5286 143.13 28.9297 143.375 29.1953C143.625 29.4609 143.956 29.5938 144.367 29.5938ZM154.688 26.2031C154.688 26.9062 154.596 27.5339 154.414 28.0859C154.232 28.638 153.969 29.1042 153.625 29.4844C153.281 29.8646 152.865 30.1562 152.375 30.3594C151.891 30.5573 151.341 30.6562 150.727 30.6562C150.154 30.6562 149.628 30.5573 149.148 30.3594C148.674 30.1562 148.263 29.8646 147.914 29.4844C147.57 29.1042 147.302 28.638 147.109 28.0859C146.922 27.5339 146.828 26.9062 146.828 26.2031C146.828 25.2656 146.987 24.4688 147.305 23.8125C147.622 23.151 148.076 22.6484 148.664 22.3047C149.258 21.9557 149.964 21.7812 150.781 21.7812C151.562 21.7812 152.245 21.9557 152.828 22.3047C153.417 22.6536 153.872 23.1589 154.195 23.8203C154.523 24.4766 154.688 25.2708 154.688 26.2031ZM148.172 26.2031C148.172 26.8906 148.263 27.487 148.445 27.9922C148.628 28.4974 148.909 28.888 149.289 29.1641C149.669 29.4401 150.159 29.5781 150.758 29.5781C151.352 29.5781 151.839 29.4401 152.219 29.1641C152.604 28.888 152.888 28.4974 153.07 27.9922C153.253 27.487 153.344 26.8906 153.344 26.2031C153.344 25.5208 153.253 24.9323 153.07 24.4375C152.888 23.9375 152.607 23.5521 152.227 23.2812C151.846 23.0104 151.354 22.875 150.75 22.875C149.859 22.875 149.206 23.1693 148.789 23.7578C148.378 24.3464 148.172 25.1615 148.172 26.2031ZM164.133 30.6562C163.049 30.6562 162.19 30.2865 161.555 29.5469C160.924 28.8073 160.609 27.7083 160.609 26.25C160.609 24.776 160.932 23.6641 161.578 22.9141C162.224 22.1589 163.083 21.7812 164.156 21.7812C164.609 21.7812 165.005 21.8411 165.344 21.9609C165.682 22.0807 165.974 22.2422 166.219 22.4453C166.464 22.6432 166.669 22.8698 166.836 23.125H166.93C166.909 22.9635 166.888 22.7422 166.867 22.4609C166.846 22.1797 166.836 21.9505 166.836 21.7734V18.3438H168.133V30.5H167.086L166.891 29.2812H166.836C166.674 29.5365 166.469 29.7682 166.219 29.9766C165.974 30.1849 165.68 30.3516 165.336 30.4766C164.997 30.5964 164.596 30.6562 164.133 30.6562ZM164.336 29.5781C165.253 29.5781 165.901 29.3177 166.281 28.7969C166.661 28.276 166.852 27.5026 166.852 26.4766V26.2422C166.852 25.1536 166.669 24.3177 166.305 23.7344C165.945 23.151 165.289 22.8594 164.336 22.8594C163.539 22.8594 162.943 23.1667 162.547 23.7812C162.151 24.3906 161.953 25.224 161.953 26.2812C161.953 27.3333 162.148 28.1458 162.539 28.7188C162.935 29.2917 163.534 29.5781 164.336 29.5781ZM178.266 26.2031C178.266 26.9062 178.174 27.5339 177.992 28.0859C177.81 28.638 177.547 29.1042 177.203 29.4844C176.859 29.8646 176.443 30.1562 175.953 30.3594C175.469 30.5573 174.919 30.6562 174.305 30.6562C173.732 30.6562 173.206 30.5573 172.727 30.3594C172.253 30.1562 171.841 29.8646 171.492 29.4844C171.148 29.1042 170.88 28.638 170.688 28.0859C170.5 27.5339 170.406 26.9062 170.406 26.2031C170.406 25.2656 170.565 24.4688 170.883 23.8125C171.201 23.151 171.654 22.6484 172.242 22.3047C172.836 21.9557 173.542 21.7812 174.359 21.7812C175.141 21.7812 175.823 21.9557 176.406 22.3047C176.995 22.6536 177.451 23.1589 177.773 23.8203C178.102 24.4766 178.266 25.2708 178.266 26.2031ZM171.75 26.2031C171.75 26.8906 171.841 27.487 172.023 27.9922C172.206 28.4974 172.487 28.888 172.867 29.1641C173.247 29.4401 173.737 29.5781 174.336 29.5781C174.93 29.5781 175.417 29.4401 175.797 29.1641C176.182 28.888 176.466 28.4974 176.648 27.9922C176.831 27.487 176.922 26.8906 176.922 26.2031C176.922 25.5208 176.831 24.9323 176.648 24.4375C176.466 23.9375 176.185 23.5521 175.805 23.2812C175.424 23.0104 174.932 22.875 174.328 22.875C173.438 22.875 172.784 23.1693 172.367 23.7578C171.956 24.3464 171.75 25.1615 171.75 26.2031Z" fill="#A8A8A8"/>
</svg>
