<svg width="30" height="31" viewBox="0 0 30 31" fill="none" xmlns="http://www.w3.org/2000/svg">
<path d="M22.9576 5.73854L22.9576 26.1929C22.957 26.7955 22.7174 27.3732 22.2913 27.7993C21.8652 28.2253 21.2875 28.465 20.6849 28.4656L16.1395 28.4656C15.5369 28.465 14.9592 28.2253 14.5331 27.7993C14.1071 27.3732 13.8674 26.7955 13.8668 26.1929L13.8668 5.73855C13.8674 5.13597 14.107 4.55825 14.5331 4.13217C14.9592 3.70608 15.5369 3.46644 16.1395 3.46584L20.6849 3.46584C21.2875 3.46644 21.8652 3.70608 22.2913 4.13217C22.7174 4.55825 22.957 5.13597 22.9576 5.73854ZM16.1395 26.1929L20.6849 26.1929L20.6849 5.73854L16.1395 5.73854L16.1395 26.1929ZM16.1395 5.73854L16.1395 26.1929C16.1389 26.7955 15.8993 27.3731 15.4732 27.7992C15.0471 28.2253 14.4694 28.4649 13.8668 28.4655L9.3214 28.4655C8.71883 28.4649 8.14111 28.2253 7.71503 27.7992C7.28894 27.3731 7.0493 26.7954 7.0487 26.1928L7.0487 5.73852C7.0493 5.13595 7.28894 4.55823 7.71502 4.13214C8.14111 3.70606 8.71883 3.46642 9.3214 3.46582L13.8668 3.46582C14.4694 3.46642 15.0471 3.70606 15.4732 4.13214C15.8993 4.55823 16.1389 5.13597 16.1395 5.73854ZM9.3214 26.1928L13.8668 26.1929L13.8668 5.73855L9.3214 5.73852L9.3214 26.1928ZM9.3214 5.73852L9.3214 26.1928C9.3208 26.7954 9.08116 27.3731 8.65508 27.7992C8.229 28.2253 7.65127 28.4649 7.0487 28.4656L2.50329 28.4656C1.90072 28.4649 1.323 28.2253 0.896915 27.7992C0.47083 27.3731 0.231192 26.7954 0.230591 26.1928L0.23059 5.73852C0.231191 5.13595 0.470829 4.55823 0.896914 4.13214C1.323 3.70606 1.90072 3.46642 2.50329 3.46582L7.0487 3.46582C7.65127 3.46642 8.229 3.70606 8.65508 4.13214C9.08116 4.55823 9.3208 5.13595 9.3214 5.73852ZM2.50329 26.1928L7.0487 26.1928L7.0487 5.73852L2.50329 5.73852L2.50329 26.1928Z" fill="white"/>
<path d="M29.7757 5.7388L29.7757 26.1931C29.7751 26.7957 29.5355 27.3734 29.1094 27.7995C28.6833 28.2256 28.1056 28.4652 27.503 28.4658L22.9576 28.4658C22.3551 28.4652 21.7773 28.2256 21.3512 27.7995C20.9252 27.3734 20.6855 26.7955 20.6849 26.1929L20.6849 5.73854C20.6855 5.13597 20.9252 4.5585 21.3512 4.13242C21.7773 3.70633 22.3551 3.4667 22.9576 3.46609L27.503 3.46609C28.1056 3.4667 28.6833 3.70633 29.1094 4.13242C29.5355 4.5585 29.7751 5.13622 29.7757 5.7388ZM22.9576 26.1929L27.503 26.1931L27.503 5.7388L22.9576 5.73854L22.9576 26.1929Z" fill="white"/>
</svg>
