<svg width="30" height="31" viewBox="0 0 30 31" fill="none" xmlns="http://www.w3.org/2000/svg">
<mask id="mask0_4_10851" style="mask-type:alpha" maskUnits="userSpaceOnUse" x="0" y="0" width="31" height="31">
<rect x="0.00317383" y="0.96582" width="30" height="30" fill="#D9D9D9"/>
</mask>
<g mask="url(#mask0_4_10851)">
<path d="M15.0032 23.4658C13.8365 23.4658 12.7219 23.6481 11.6594 24.0127C10.5969 24.3773 9.62817 24.9242 8.75317 25.6533V25.9658H21.2532V25.6533C20.3782 24.9242 19.4094 24.3773 18.3469 24.0127C17.2844 23.6481 16.1698 23.4658 15.0032 23.4658ZM6.25317 24.5283C7.37817 23.4242 8.68547 22.5544 10.175 21.9189C11.6646 21.2835 13.274 20.9658 15.0032 20.9658C16.7323 20.9658 18.3417 21.2835 19.8313 21.9189C21.3209 22.5544 22.6282 23.4242 23.7532 24.5283V8.46582H6.25317V24.5283ZM15.0032 18.4658C13.7948 18.4658 12.7636 18.0387 11.9094 17.1846C11.0553 16.3304 10.6282 15.2992 10.6282 14.0908C10.6282 12.8825 11.0553 11.8512 11.9094 10.9971C12.7636 10.1429 13.7948 9.71582 15.0032 9.71582C16.2115 9.71582 17.2428 10.1429 18.0969 10.9971C18.9511 11.8512 19.3782 12.8825 19.3782 14.0908C19.3782 15.2992 18.9511 16.3304 18.0969 17.1846C17.2428 18.0387 16.2115 18.4658 15.0032 18.4658ZM15.0032 15.9658C15.524 15.9658 15.9667 15.7835 16.3313 15.4189C16.6959 15.0544 16.8782 14.6117 16.8782 14.0908C16.8782 13.57 16.6959 13.1273 16.3313 12.7627C15.9667 12.3981 15.524 12.2158 15.0032 12.2158C14.4823 12.2158 14.0396 12.3981 13.675 12.7627C13.3105 13.1273 13.1282 13.57 13.1282 14.0908C13.1282 14.6117 13.3105 15.0544 13.675 15.4189C14.0396 15.7835 14.4823 15.9658 15.0032 15.9658ZM6.25317 28.4658C5.56567 28.4658 4.97713 28.221 4.48755 27.7314C3.99797 27.2419 3.75317 26.6533 3.75317 25.9658V8.46582C3.75317 7.77832 3.99797 7.18978 4.48755 6.7002C4.97713 6.21061 5.56567 5.96582 6.25317 5.96582H7.50317V3.46582H10.0032V5.96582H20.0032V3.46582H22.5032V5.96582H23.7532C24.4407 5.96582 25.0292 6.21061 25.5188 6.7002C26.0084 7.18978 26.2532 7.77832 26.2532 8.46582V25.9658C26.2532 26.6533 26.0084 27.2419 25.5188 27.7314C25.0292 28.221 24.4407 28.4658 23.7532 28.4658H6.25317Z" fill="white"/>
</g>
</svg>
