<svg width="19" height="10" viewBox="0 0 19 10" fill="none" xmlns="http://www.w3.org/2000/svg">
<path d="M1.72168 0.515625C2.09311 0.461457 2.47316 0.552237 2.77832 0.771485L9.50097 5.59277L16.2236 0.771485L16.3408 0.695313C16.461 0.625591 16.5911 0.573811 16.7266 0.541017C16.9075 0.497245 17.096 0.488756 17.2803 0.515626C17.4644 0.542527 17.6421 0.604264 17.8027 0.698243C17.9635 0.792292 18.105 0.917048 18.2178 1.06543C18.3304 1.21373 18.4127 1.38291 18.459 1.56348C18.5052 1.7443 18.5138 1.9327 18.4853 2.11719C18.4569 2.30155 18.392 2.47818 18.2939 2.63672C18.1958 2.79532 18.0664 2.93325 17.915 3.04199L10.3467 8.47558C10.1001 8.65227 9.80308 8.7466 9.5 8.74609L9.5 8.74511C9.2353 8.74523 8.97567 8.67424 8.75 8.53808L8.65527 8.47558L1.08691 3.04199C0.935592 2.93325 0.806142 2.79532 0.708008 2.63672C0.609967 2.47817 0.545045 2.30155 0.516602 2.11719C0.459051 1.74405 0.556176 1.36556 0.78418 1.06543C1.01191 0.76587 1.35019 0.569895 1.72168 0.515625Z" fill="#2A3647" stroke="#2A3647"/>
</svg>
