<svg width="25" height="25" viewBox="0 0 25 25" fill="none" xmlns="http://www.w3.org/2000/svg">
<path d="M20.2803 16.7305C19.9088 16.7846 19.5288 16.6939 19.2236 16.4746L12.501 11.6533L5.77833 16.4746L5.66114 16.5508C5.37884 16.7145 5.04684 16.7779 4.72169 16.7305C4.35021 16.6762 4.01191 16.4802 3.78419 16.1807C3.55619 15.8805 3.45906 15.502 3.51661 15.1289C3.57417 14.7558 3.78126 14.4238 4.08692 14.2041L11.6553 8.77051C11.9019 8.59382 12.1989 8.4995 12.502 8.5L12.502 8.50098C12.7666 8.50086 13.0263 8.57185 13.252 8.70801L13.3467 8.77051L20.915 14.2041C21.2207 14.4238 21.4278 14.7558 21.4854 15.1289C21.5429 15.502 21.4458 15.8805 21.2178 16.1807C20.99 16.4802 20.6518 16.6762 20.2803 16.7305Z" fill="#2A3647" stroke="#2A3647"/>
</svg>
