<svg width="70" height="70" viewBox="0 0 70 70" fill="none" xmlns="http://www.w3.org/2000/svg">
<circle cx="35.3945" cy="34.8083" r="34.5" fill="white"/>
<mask id="mask0_4_10302" style="mask-type:alpha" maskUnits="userSpaceOnUse" x="19" y="18" width="33" height="33">
<rect x="19.3945" y="18.8083" width="32" height="32" fill="#D9D9D9"/>
</mask>
<g mask="url(#mask0_4_10302)">
<path d="M26.0612 44.1417H27.9279L39.4279 32.6417L37.5612 30.775L26.0612 42.275V44.1417ZM45.1279 30.7084L39.4612 25.1084L41.3279 23.2417C41.839 22.7306 42.4668 22.475 43.2112 22.475C43.9556 22.475 44.5834 22.7306 45.0945 23.2417L46.9612 25.1084C47.4723 25.6195 47.739 26.2361 47.7612 26.9584C47.7834 27.6806 47.539 28.2973 47.0279 28.8084L45.1279 30.7084ZM43.1945 32.675L29.0612 46.8084H23.3945V41.1417L37.5279 27.0084L43.1945 32.675Z" fill="#2A3647"/>
</g>
</svg>
