<svg width="61" height="61" viewBox="0 0 61 61" fill="none" xmlns="http://www.w3.org/2000/svg">
<circle cx="30.1445" cy="30.8083" r="30" fill="#FF3D00"/>
<g clip-path="url(#clip0_4_10323)">
<path d="M45.0154 41.9712C44.6144 41.9719 44.2237 41.8423 43.9009 41.6015L29.7956 31.0716L15.6904 41.6015C15.4923 41.7496 15.2674 41.8568 15.0285 41.917C14.7895 41.9771 14.5412 41.9891 14.2977 41.9521C14.0541 41.9151 13.8202 41.83 13.6092 41.7016C13.3982 41.5731 13.2142 41.4038 13.0679 41.2035C12.9215 41.0031 12.8156 40.7755 12.7561 40.5337C12.6967 40.2918 12.6849 40.0405 12.7214 39.7941C12.7952 39.2964 13.0613 38.8488 13.4613 38.5497L28.6811 27.1763C29.0036 26.9346 29.3943 26.8042 29.7956 26.8042C30.1969 26.8042 30.5876 26.9346 30.9102 27.1763L46.13 38.5497C46.4478 38.7867 46.6835 39.1192 46.8034 39.4998C46.9233 39.8804 46.9213 40.2896 46.7977 40.669C46.6741 41.0484 46.4352 41.3786 46.1152 41.6125C45.7951 41.8463 45.4102 41.9719 45.0154 41.9712Z" fill="white"/>
<path d="M45.0154 32.0193C44.6144 32.02 44.2237 31.8904 43.9009 31.6496L29.7956 21.1197L15.6904 31.6496C15.2904 31.9487 14.7895 32.0749 14.2977 32.0002C13.8058 31.9256 13.3635 31.6563 13.0679 31.2515C12.7723 30.8468 12.6477 30.3399 12.7214 29.8422C12.7952 29.3445 13.0613 28.8969 13.4613 28.5978L28.6811 17.2243C29.0036 16.9827 29.3943 16.8523 29.7956 16.8523C30.1969 16.8523 30.5876 16.9827 30.9102 17.2243L46.13 28.5978C46.4478 28.8348 46.6835 29.1673 46.8034 29.5479C46.9233 29.9285 46.9213 30.3377 46.7977 30.7171C46.6741 31.0965 46.4352 31.4267 46.1152 31.6606C45.7951 31.8944 45.4102 32.0199 45.0154 32.0193Z" fill="white"/>
</g>
<defs>
<clipPath id="clip0_4_10323">
<rect width="34.186" height="25.1163" fill="white" transform="translate(12.7026 16.8549)"/>
</clipPath>
</defs>
</svg>
