<svg width="134" height="134" viewBox="0 0 134 134" fill="none" xmlns="http://www.w3.org/2000/svg">
<g filter="url(#filter0_d_1_4200)">
<rect x="7" y="7" width="120" height="120" rx="60" fill="white"/>
<rect x="5.5" y="5.5" width="123" height="123" rx="61.5" stroke="white" stroke-width="3"/>
<circle cx="67" cy="67" r="60" fill="#D1D1D1"/>
<mask id="mask0_1_4200" style="mask-type:alpha" maskUnits="userSpaceOnUse" x="35" y="35" width="64" height="64">
<rect x="35" y="35" width="64" height="64" fill="#D9D9D9"/>
</mask>
<g mask="url(#mask0_1_4200)">
<path d="M67.0001 66.9998C64.0667 66.9998 61.5556 65.9554 59.4667 63.8665C57.3779 61.7776 56.3334 59.2665 56.3334 56.3332C56.3334 53.3998 57.3779 50.8887 59.4667 48.7998C61.5556 46.7109 64.0667 45.6665 67.0001 45.6665C69.9334 45.6665 72.4445 46.7109 74.5334 48.7998C76.6223 50.8887 77.6667 53.3998 77.6667 56.3332C77.6667 59.2665 76.6223 61.7776 74.5334 63.8665C72.4445 65.9554 69.9334 66.9998 67.0001 66.9998ZM83.0001 88.3332H51.0001C49.5334 88.3332 48.2779 87.811 47.2334 86.7665C46.189 85.7221 45.6667 84.4665 45.6667 82.9998V80.8665C45.6667 79.3554 46.0556 77.9665 46.8334 76.6998C47.6112 75.4332 48.6445 74.4665 49.9334 73.7998C52.689 72.4221 55.489 71.3887 58.3334 70.6998C61.1779 70.0109 64.0667 69.6665 67.0001 69.6665C69.9334 69.6665 72.8223 70.0109 75.6667 70.6998C78.5112 71.3887 81.3112 72.4221 84.0667 73.7998C85.3556 74.4665 86.389 75.4332 87.1667 76.6998C87.9445 77.9665 88.3334 79.3554 88.3334 80.8665V82.9998C88.3334 84.4665 87.8112 85.7221 86.7668 86.7665C85.7223 87.811 84.4668 88.3332 83.0001 88.3332ZM51.0001 82.9998H83.0001V80.8665C83.0001 80.3776 82.8779 79.9332 82.6334 79.5332C82.389 79.1332 82.0667 78.8221 81.6667 78.5998C79.2668 77.3998 76.8445 76.4998 74.4001 75.8998C71.9556 75.2998 69.489 74.9998 67.0001 74.9998C64.5112 74.9998 62.0445 75.2998 59.6001 75.8998C57.1556 76.4998 54.7334 77.3998 52.3334 78.5998C51.9334 78.8221 51.6112 79.1332 51.3667 79.5332C51.1223 79.9332 51.0001 80.3776 51.0001 80.8665V82.9998ZM67.0001 61.6665C68.4667 61.6665 69.7223 61.1443 70.7668 60.0998C71.8112 59.0554 72.3334 57.7998 72.3334 56.3332C72.3334 54.8665 71.8112 53.6109 70.7668 52.5665C69.7223 51.5221 68.4667 50.9998 67.0001 50.9998C65.5334 50.9998 64.2779 51.5221 63.2334 52.5665C62.189 53.6109 61.6667 54.8665 61.6667 56.3332C61.6667 57.7998 62.189 59.0554 63.2334 60.0998C64.2779 61.1443 65.5334 61.6665 67.0001 61.6665Z" fill="white"/>
</g>
</g>
<defs>
<filter id="filter0_d_1_4200" x="0" y="0" width="134" height="134" filterUnits="userSpaceOnUse" color-interpolation-filters="sRGB">
<feFlood flood-opacity="0" result="BackgroundImageFix"/>
<feColorMatrix in="SourceAlpha" type="matrix" values="0 0 0 0 0 0 0 0 0 0 0 0 0 0 0 0 0 0 127 0" result="hardAlpha"/>
<feOffset/>
<feGaussianBlur stdDeviation="2"/>
<feColorMatrix type="matrix" values="0 0 0 0 0 0 0 0 0 0 0 0 0 0 0 0 0 0 0.1 0"/>
<feBlend mode="normal" in2="BackgroundImageFix" result="effect1_dropShadow_1_4200"/>
<feBlend mode="normal" in="SourceGraphic" in2="effect1_dropShadow_1_4200" result="shape"/>
</filter>
</defs>
</svg>
