<svg width="25" height="24" viewBox="0 0 25 24" fill="none" xmlns="http://www.w3.org/2000/svg">
<mask id="mask0_4_10624" style="mask-type:alpha" maskUnits="userSpaceOnUse" x="0" y="0" width="25" height="24">
<rect x="0.0683594" width="24" height="24" fill="#D9D9D9"/>
</mask>
<g mask="url(#mask0_4_10624)">
<path d="M9.61893 15.15L18.0939 6.675C18.2939 6.475 18.5314 6.375 18.8064 6.375C19.0814 6.375 19.3189 6.475 19.5189 6.675C19.7189 6.875 19.8189 7.1125 19.8189 7.3875C19.8189 7.6625 19.7189 7.9 19.5189 8.1L10.3189 17.3C10.1189 17.5 9.8856 17.6 9.61893 17.6C9.35227 17.6 9.11893 17.5 8.91893 17.3L4.61893 13C4.41893 12.8 4.3231 12.5625 4.33143 12.2875C4.33977 12.0125 4.44393 11.775 4.64393 11.575C4.84393 11.375 5.08143 11.275 5.35643 11.275C5.63143 11.275 5.86893 11.375 6.06893 11.575L9.61893 15.15Z" fill="white"/>
</g>
</svg>
