<svg width="33" height="32" viewBox="0 0 33 32" fill="none" xmlns="http://www.w3.org/2000/svg">
<mask id="mask0_4_10654" style="mask-type:alpha" maskUnits="userSpaceOnUse" x="0" y="0" width="33" height="32">
<rect x="0.0683594" width="32" height="32" fill="#D9D9D9"/>
</mask>
<g mask="url(#mask0_4_10654)">
<path d="M25.3977 18.6667C25.0818 18.6667 24.8183 18.5602 24.6072 18.3472C24.3961 18.1342 24.2905 17.8704 24.2905 17.5556V14.4444H21.1794C20.8646 14.4444 20.6007 14.3376 20.3877 14.1239C20.1748 13.9101 20.0683 13.6453 20.0683 13.3294C20.0683 13.0135 20.1748 12.75 20.3877 12.5389C20.6007 12.3278 20.8646 12.2222 21.1794 12.2222H24.2905V9.11109C24.2905 8.79629 24.3974 8.5324 24.6111 8.31942C24.8248 8.10647 25.0896 7.99999 25.4055 7.99999C25.7214 7.99999 25.9849 8.10647 26.196 8.31942C26.4072 8.5324 26.5127 8.79629 26.5127 9.11109V12.2222H29.6238C29.9386 12.2222 30.2025 12.3291 30.4155 12.5428C30.6285 12.7565 30.7349 13.0213 30.7349 13.3372C30.7349 13.6531 30.6285 13.9166 30.4155 14.1278C30.2025 14.3389 29.9386 14.4444 29.6238 14.4444H26.5127V17.5556C26.5127 17.8704 26.4059 18.1342 26.1921 18.3472C25.9784 18.5602 25.7136 18.6667 25.3977 18.6667ZM12.0683 15.9778C10.6016 15.9778 9.38309 15.4926 8.41271 14.5222C7.44236 13.5518 6.95718 12.3333 6.95718 10.8667C6.95718 9.39999 7.44236 8.18148 8.41271 7.21112C9.38309 6.24074 10.6016 5.75555 12.0683 5.75555C13.5349 5.75555 14.7535 6.24074 15.7238 7.21112C16.6942 8.18148 17.1794 9.39999 17.1794 10.8667C17.1794 12.3333 16.6942 13.5518 15.7238 14.5222C14.7535 15.4926 13.5349 15.9778 12.0683 15.9778ZM2.51271 26.6667C2.19791 26.6667 1.93402 26.5602 1.72104 26.3472C1.50809 26.1342 1.40161 25.8704 1.40161 25.5556V23.3333C1.40161 22.563 1.59976 21.8611 1.99604 21.2278C2.39236 20.5945 2.93496 20.1185 3.62384 19.8C5.19422 19.0815 6.64858 18.5648 7.98691 18.25C9.32527 17.9352 10.6845 17.7778 12.0647 17.7778C13.4449 17.7778 14.8053 17.9352 16.146 18.25C17.4868 18.5648 18.9349 19.0815 20.4905 19.8C21.1794 20.1333 21.7257 20.613 22.1294 21.2389C22.5331 21.8648 22.7349 22.563 22.7349 23.3333V25.5556C22.7349 25.8704 22.6285 26.1342 22.4155 26.3472C22.2025 26.5602 21.9386 26.6667 21.6238 26.6667H2.51271ZM3.62381 24.4445H20.5127V23.3333C20.5127 23.0148 20.4331 22.7148 20.2738 22.4333C20.1146 22.1518 19.8757 21.9407 19.5572 21.8C18.1201 21.0963 16.8312 20.6204 15.6905 20.3722C14.5498 20.1241 13.3423 20 12.0683 20C10.7942 20 9.5868 20.1278 8.44604 20.3833C7.30531 20.6389 6.00902 21.1111 4.55718 21.8C4.26827 21.9407 4.04048 22.1518 3.87381 22.4333C3.70714 22.7148 3.62381 23.0148 3.62381 23.3333V24.4445ZM12.0683 13.7556C12.8905 13.7556 13.5775 13.4796 14.1294 12.9278C14.6812 12.3759 14.9572 11.6889 14.9572 10.8667C14.9572 10.0444 14.6812 9.3574 14.1294 8.80555C13.5775 8.25369 12.8905 7.97775 12.0683 7.97775C11.2461 7.97775 10.559 8.25369 10.0072 8.80555C9.45531 9.3574 9.17938 10.0444 9.17938 10.8667C9.17938 11.6889 9.45531 12.3759 10.0072 12.9278C10.559 13.4796 11.2461 13.7556 12.0683 13.7556Z" fill="white"/>
</g>
</svg>
