<svg width="32" height="32" viewBox="0 0 32 32" fill="none" xmlns="http://www.w3.org/2000/svg">
<g clip-path="url(#clip0_67_4037)">
<path d="M23.5685 19.1671L8.43151 19.1671C8.18446 19.1671 7.94752 19.0682 7.77283 18.8923C7.59814 18.7163 7.5 18.4776 7.5 18.2288C7.5 17.98 7.59814 17.7413 7.77283 17.5653C7.94752 17.3894 8.18446 17.2905 8.43151 17.2905L23.5685 17.2905C23.8155 17.2905 24.0525 17.3894 24.2272 17.5653C24.4019 17.7413 24.5 17.98 24.5 18.2288C24.5 18.4776 24.4019 18.7163 24.2272 18.8923C24.0525 19.0682 23.8155 19.1671 23.5685 19.1671Z" fill="#FFA800"/>
<path d="M23.5685 14.71L8.43151 14.71C8.18446 14.71 7.94752 14.6112 7.77283 14.4352C7.59814 14.2593 7.5 14.0206 7.5 13.7718C7.5 13.5229 7.59814 13.2843 7.77283 13.1083C7.94752 12.9323 8.18446 12.8335 8.43151 12.8335L23.5685 12.8335C23.8155 12.8335 24.0525 12.9323 24.2272 13.1083C24.4019 13.2843 24.5 13.5229 24.5 13.7718C24.5 14.0206 24.4019 14.2593 24.2272 14.4352C24.0525 14.6112 23.8155 14.71 23.5685 14.71Z" fill="#FFA800"/>
</g>
<defs>
<clipPath id="clip0_67_4037">
<rect width="17" height="6.33333" fill="white" transform="translate(7.5 12.8335)"/>
</clipPath>
</defs>
</svg>
