<svg width="569" height="73" viewBox="0 0 569 73" fill="none" xmlns="http://www.w3.org/2000/svg">
<path d="M42.9989 30.168H33.511C33.3377 28.9405 32.9839 27.8501 32.4496 26.897C31.9152 25.9294 31.2293 25.1063 30.3917 24.4276C29.5541 23.7488 28.5865 23.2289 27.489 22.8679C26.4059 22.5069 25.2289 22.3264 23.9581 22.3264C21.6619 22.3264 19.6618 22.8968 17.9577 24.0376C16.2537 25.1641 14.9323 26.8104 13.9936 28.9766C13.0549 31.1283 12.5856 33.7422 12.5856 36.8182C12.5856 39.9808 13.0549 42.638 13.9936 44.7898C14.9467 46.9415 16.2753 48.5662 17.9794 49.6637C19.6835 50.7612 21.6547 51.31 23.8931 51.31C25.1495 51.31 26.312 51.1439 27.3807 50.8118C28.4638 50.4796 29.4241 49.9959 30.2617 49.3604C31.0993 48.7106 31.7925 47.9235 32.3413 46.9993C32.9045 46.075 33.2944 45.0208 33.511 43.8366L42.9989 43.88C42.7534 45.9162 42.1397 47.8802 41.1577 49.772C40.1901 51.6494 38.8832 53.3318 37.2369 54.8192C35.605 56.2923 33.6554 57.462 31.3881 58.3285C29.1353 59.1805 26.5864 59.6065 23.7415 59.6065C19.7846 59.6065 16.2464 58.7112 13.1271 56.9205C10.0223 55.1297 7.56724 52.5375 5.76207 49.1438C3.97135 45.7501 3.07599 41.6416 3.07599 36.8182C3.07599 31.9803 3.9858 27.8646 5.8054 24.4709C7.625 21.0772 10.0945 18.4922 13.2138 16.7159C16.3331 14.9252 19.8423 14.0298 23.7415 14.0298C26.312 14.0298 28.6948 14.3909 30.8899 15.1129C33.0994 15.835 35.0562 16.8892 36.7603 18.2756C38.4644 19.6475 39.8507 21.3299 40.9194 23.3228C42.0025 25.3157 42.6957 27.5974 42.9989 30.168ZM64.5851 59.6499C61.2202 59.6499 58.3103 58.935 55.8553 57.5053C53.4147 56.0612 51.5301 54.0539 50.2015 51.4833C48.8729 48.8983 48.2086 45.9018 48.2086 42.4936C48.2086 39.0566 48.8729 36.0528 50.2015 33.4822C51.5301 30.8973 53.4147 28.8899 55.8553 27.4602C58.3103 26.0161 61.2202 25.294 64.5851 25.294C67.9499 25.294 70.8526 26.0161 73.2931 27.4602C75.7482 28.8899 77.64 30.8973 78.9686 33.4822C80.2972 36.0528 80.9615 39.0566 80.9615 42.4936C80.9615 45.9018 80.2972 48.8983 78.9686 51.4833C77.64 54.0539 75.7482 56.0612 73.2931 57.5053C70.8526 58.935 67.9499 59.6499 64.5851 59.6499ZM64.6284 52.5014C66.1592 52.5014 67.4372 52.0682 68.4625 51.2017C69.4879 50.3208 70.2605 49.1222 70.7804 47.6058C71.3147 46.0895 71.5819 44.3638 71.5819 42.4286C71.5819 40.4935 71.3147 38.7678 70.7804 37.2514C70.2605 35.7351 69.4879 34.5365 68.4625 33.6555C67.4372 32.7746 66.1592 32.3342 64.6284 32.3342C63.0832 32.3342 61.7834 32.7746 60.7292 33.6555C59.6895 34.5365 58.9024 35.7351 58.3681 37.2514C57.8482 38.7678 57.5882 40.4935 57.5882 42.4286C57.5882 44.3638 57.8482 46.0895 58.3681 47.6058C58.9024 49.1222 59.6895 50.3208 60.7292 51.2017C61.7834 52.0682 63.0832 52.5014 64.6284 52.5014ZM96.1898 39.7642V59H86.9618V25.7273H95.7566V31.5977H96.1465C96.883 29.6625 98.1177 28.1317 99.8507 27.0053C101.584 25.8645 103.685 25.294 106.154 25.294C108.465 25.294 110.479 25.7995 112.198 26.8104C113.916 27.8213 115.252 29.2654 116.205 31.1428C117.159 33.0057 117.635 35.2296 117.635 37.8146V59H108.407V39.4609C108.422 37.4247 107.902 35.8362 106.847 34.6953C105.793 33.54 104.342 32.9624 102.493 32.9624C101.251 32.9624 100.154 33.2295 99.2008 33.7638C98.2621 34.2982 97.5256 35.078 96.9913 36.1033C96.4714 37.1142 96.2042 38.3345 96.1898 39.7642ZM142.606 25.7273V32.6591H122.569V25.7273H142.606ZM127.118 17.7557H136.346V48.7756C136.346 49.6276 136.476 50.2919 136.736 50.7685C136.995 51.2306 137.357 51.5555 137.819 51.7433C138.295 51.931 138.844 52.0249 139.465 52.0249C139.898 52.0249 140.331 51.9888 140.765 51.9165C141.198 51.8299 141.53 51.7649 141.761 51.7216L143.212 58.5884C142.75 58.7328 142.1 58.8989 141.263 59.0866C140.425 59.2888 139.407 59.4116 138.209 59.4549C135.985 59.5415 134.035 59.2455 132.36 58.5668C130.699 57.888 129.407 56.8338 128.482 55.4041C127.558 53.9744 127.103 52.1693 127.118 49.9886V17.7557ZM158.105 59.6282C155.982 59.6282 154.09 59.2599 152.43 58.5234C150.769 57.7725 149.455 56.6677 148.487 55.2092C147.534 53.7362 147.057 51.9021 147.057 49.707C147.057 47.8585 147.397 46.3061 148.076 45.0497C148.754 43.7933 149.679 42.7824 150.848 42.017C152.018 41.2517 153.347 40.674 154.834 40.2841C156.336 39.8942 157.91 39.6198 159.556 39.4609C161.492 39.2588 163.051 39.071 164.235 38.8977C165.42 38.71 166.279 38.4356 166.813 38.0746C167.347 37.7135 167.615 37.1792 167.615 36.4716V36.3416C167.615 34.9697 167.181 33.9083 166.315 33.1573C165.463 32.4064 164.25 32.0309 162.676 32.0309C161.015 32.0309 159.694 32.3991 158.712 33.1357C157.73 33.8577 157.08 34.7675 156.762 35.8651L148.227 35.1719C148.66 33.1501 149.512 31.4027 150.783 29.9297C152.054 28.4422 153.693 27.3014 155.701 26.5071C157.722 25.6984 160.062 25.294 162.719 25.294C164.568 25.294 166.337 25.5107 168.026 25.9439C169.73 26.3771 171.239 27.0486 172.554 27.9584C173.882 28.8683 174.929 30.038 175.695 31.4677C176.46 32.8829 176.843 34.5798 176.843 36.5582V59H168.091V54.386H167.831C167.297 55.4258 166.582 56.3428 165.687 57.1371C164.791 57.9169 163.715 58.5307 162.459 58.9783C161.203 59.4116 159.751 59.6282 158.105 59.6282ZM160.748 53.2596C162.105 53.2596 163.304 52.9924 164.344 52.4581C165.383 51.9093 166.199 51.1728 166.791 50.2486C167.384 49.3243 167.68 48.2773 167.68 47.1076V43.5767C167.391 43.7644 166.994 43.9377 166.488 44.0966C165.997 44.241 165.441 44.3782 164.82 44.5082C164.199 44.6237 163.578 44.732 162.957 44.8331C162.336 44.9197 161.773 44.9992 161.268 45.0714C160.185 45.2302 159.239 45.483 158.43 45.8295C157.621 46.1761 156.993 46.6455 156.545 47.2376C156.098 47.8152 155.874 48.5373 155.874 49.4038C155.874 50.6602 156.329 51.6205 157.239 52.2848C158.163 52.9347 159.333 53.2596 160.748 53.2596ZM199.035 59.6499C195.627 59.6499 192.696 58.9278 190.241 57.4837C187.8 56.0251 185.923 54.0033 184.608 51.4183C183.309 48.8333 182.659 45.8584 182.659 42.4936C182.659 39.0855 183.316 36.0961 184.63 33.5256C185.959 30.9406 187.843 28.926 190.284 27.4819C192.724 26.0233 195.627 25.294 198.992 25.294C201.895 25.294 204.436 25.8211 206.617 26.8754C208.798 27.9296 210.523 29.4098 211.794 31.316C213.065 33.2223 213.765 35.4607 213.895 38.0312H205.187C204.942 36.3705 204.292 35.0347 203.238 34.0238C202.198 32.9985 200.833 32.4858 199.144 32.4858C197.714 32.4858 196.465 32.8757 195.396 33.6555C194.342 34.4209 193.519 35.5401 192.927 37.0131C192.334 38.4862 192.038 40.2696 192.038 42.3636C192.038 44.4865 192.327 46.2917 192.905 47.7791C193.497 49.2666 194.327 50.4002 195.396 51.18C196.465 51.9599 197.714 52.3498 199.144 52.3498C200.198 52.3498 201.144 52.1332 201.981 51.6999C202.833 51.2667 203.534 50.6385 204.082 49.8153C204.646 48.9777 205.014 47.9741 205.187 46.8043H213.895C213.751 49.346 213.058 51.5844 211.816 53.5195C210.588 55.4402 208.891 56.9421 206.725 58.0252C204.559 59.1083 201.996 59.6499 199.035 59.6499ZM237.501 25.7273V32.6591H217.464V25.7273H237.501ZM222.013 17.7557H231.241V48.7756C231.241 49.6276 231.371 50.2919 231.631 50.7685C231.891 51.2306 232.252 51.5555 232.714 51.7433C233.191 51.931 233.739 52.0249 234.36 52.0249C234.794 52.0249 235.227 51.9888 235.66 51.9165C236.093 51.8299 236.426 51.7649 236.657 51.7216L238.108 58.5884C237.646 58.7328 236.996 58.8989 236.158 59.0866C235.321 59.2888 234.303 59.4116 233.104 59.4549C230.88 59.5415 228.931 59.2455 227.255 58.5668C225.595 57.888 224.302 56.8338 223.378 55.4041C222.454 53.9744 221.999 52.1693 222.013 49.9886V17.7557ZM270.78 35.2152L262.331 35.7351C262.187 35.013 261.877 34.3632 261.4 33.7855C260.923 33.1934 260.295 32.7241 259.515 32.3775C258.75 32.0165 257.833 31.8359 256.764 31.8359C255.335 31.8359 254.129 32.1392 253.147 32.7457C252.165 33.3378 251.674 34.1321 251.674 35.1285C251.674 35.9228 251.991 36.5943 252.627 37.1431C253.262 37.6919 254.353 38.1323 255.898 38.4645L261.92 39.6776C265.155 40.3419 267.566 41.4105 269.155 42.8835C270.743 44.3565 271.538 46.2917 271.538 48.6889C271.538 50.8696 270.895 52.783 269.61 54.4293C268.339 56.0756 266.592 57.3609 264.368 58.2852C262.158 59.195 259.609 59.6499 256.721 59.6499C252.316 59.6499 248.807 58.7328 246.193 56.8988C243.594 55.0503 242.07 52.5375 241.623 49.3604L250.699 48.8839C250.973 50.2269 251.638 51.2522 252.692 51.9599C253.746 52.6531 255.096 52.9996 256.743 52.9996C258.36 52.9996 259.66 52.6892 260.642 52.0682C261.638 51.4328 262.144 50.6168 262.158 49.6204C262.144 48.7828 261.79 48.0968 261.097 47.5625C260.403 47.0137 259.335 46.5949 257.891 46.3061L252.129 45.158C248.879 44.5082 246.46 43.3817 244.872 41.7788C243.298 40.1758 242.511 38.1323 242.511 35.6484C242.511 33.5111 243.088 31.6699 244.244 30.1246C245.413 28.5794 247.053 27.388 249.161 26.5504C251.284 25.7128 253.768 25.294 256.613 25.294C260.815 25.294 264.122 26.1822 266.534 27.9584C268.96 29.7347 270.375 32.1536 270.78 35.2152Z" fill="black"/>
<path d="M304 7V66" stroke="#29ABE2" stroke-width="3" stroke-linecap="round"/>
<path d="M336.378 46.5V26.8636H343.243C344.611 26.8636 345.739 27.1001 346.627 27.5732C347.516 28.0398 348.178 28.6694 348.612 29.462C349.047 30.2482 349.264 31.1207 349.264 32.0795C349.264 32.9233 349.114 33.62 348.814 34.1697C348.52 34.7195 348.13 35.1541 347.644 35.4737C347.164 35.7933 346.643 36.0298 346.081 36.1832V36.375C346.682 36.4134 347.286 36.6243 347.893 37.0078C348.5 37.3913 349.009 37.9411 349.418 38.657C349.827 39.3729 350.031 40.2486 350.031 41.2841C350.031 42.2685 349.808 43.1538 349.36 43.94C348.913 44.7262 348.206 45.3494 347.241 45.8097C346.276 46.2699 345.02 46.5 343.473 46.5H336.378ZM338.756 44.3906H343.473C345.026 44.3906 346.129 44.0902 346.781 43.4893C347.439 42.8821 347.768 42.147 347.768 41.2841C347.768 40.6193 347.599 40.0057 347.26 39.4432C346.922 38.8743 346.439 38.4205 345.812 38.0817C345.186 37.7365 344.445 37.5639 343.588 37.5639H338.756V44.3906ZM338.756 35.4929H343.166C343.882 35.4929 344.528 35.3523 345.103 35.071C345.685 34.7898 346.145 34.3935 346.484 33.8821C346.829 33.3707 347.001 32.7699 347.001 32.0795C347.001 31.2166 346.701 30.4847 346.1 29.8839C345.499 29.2766 344.547 28.973 343.243 28.973H338.756V35.4929ZM359.806 46.8068C358.387 46.8068 357.163 46.4936 356.134 45.8672C355.111 45.2344 354.322 44.3523 353.766 43.2209C353.216 42.0831 352.941 40.7599 352.941 39.2514C352.941 37.7429 353.216 36.4134 353.766 35.2628C354.322 34.1058 355.095 33.2045 356.086 32.5589C357.083 31.907 358.247 31.581 359.576 31.581C360.343 31.581 361.101 31.7088 361.849 31.9645C362.596 32.2202 363.277 32.6357 363.891 33.2109C364.504 33.7798 364.993 34.5341 365.358 35.4737C365.722 36.4134 365.904 37.5703 365.904 38.9446V39.9034H354.552V37.9474H363.603C363.603 37.1165 363.437 36.375 363.105 35.723C362.779 35.071 362.312 34.5565 361.705 34.1793C361.104 33.8022 360.394 33.6136 359.576 33.6136C358.675 33.6136 357.895 33.8374 357.237 34.2848C356.585 34.7259 356.083 35.3011 355.731 36.0107C355.38 36.7202 355.204 37.4808 355.204 38.2926V39.5966C355.204 40.7088 355.396 41.6516 355.779 42.4251C356.169 43.1921 356.709 43.777 357.4 44.1797C358.09 44.576 358.892 44.7741 359.806 44.7741C360.401 44.7741 360.938 44.6911 361.417 44.5249C361.903 44.3523 362.322 44.0966 362.673 43.7578C363.025 43.4126 363.296 42.9844 363.488 42.473L365.674 43.0866C365.444 43.8281 365.057 44.4801 364.514 45.0426C363.971 45.5987 363.3 46.0334 362.501 46.3466C361.702 46.6534 360.803 46.8068 359.806 46.8068ZM375.751 31.7727V33.6903H368.119V31.7727H375.751ZM370.344 28.2443H372.606V42.2812C372.606 42.9205 372.699 43.3999 372.884 43.7195C373.076 44.0327 373.319 44.2436 373.613 44.3523C373.914 44.4545 374.23 44.5057 374.562 44.5057C374.812 44.5057 375.016 44.4929 375.176 44.4673C375.336 44.4354 375.464 44.4098 375.559 44.3906L376.02 46.4233C375.866 46.4808 375.652 46.5384 375.377 46.5959C375.102 46.6598 374.754 46.6918 374.332 46.6918C373.693 46.6918 373.067 46.5543 372.453 46.2795C371.846 46.0046 371.341 45.5859 370.938 45.0234C370.542 44.4609 370.344 43.7514 370.344 42.8949V28.2443ZM385.56 31.7727V33.6903H377.928V31.7727H385.56ZM380.152 28.2443H382.415V42.2812C382.415 42.9205 382.508 43.3999 382.693 43.7195C382.885 44.0327 383.128 44.2436 383.422 44.3523C383.722 44.4545 384.039 44.5057 384.371 44.5057C384.62 44.5057 384.825 44.4929 384.985 44.4673C385.144 44.4354 385.272 44.4098 385.368 44.3906L385.828 46.4233C385.675 46.4808 385.461 46.5384 385.186 46.5959C384.911 46.6598 384.563 46.6918 384.141 46.6918C383.502 46.6918 382.875 46.5543 382.262 46.2795C381.654 46.0046 381.149 45.5859 380.747 45.0234C380.35 44.4609 380.152 43.7514 380.152 42.8949V28.2443ZM394.98 46.8068C393.561 46.8068 392.337 46.4936 391.308 45.8672C390.285 45.2344 389.496 44.3523 388.94 43.2209C388.39 42.0831 388.115 40.7599 388.115 39.2514C388.115 37.7429 388.39 36.4134 388.94 35.2628C389.496 34.1058 390.269 33.2045 391.26 32.5589C392.257 31.907 393.42 31.581 394.75 31.581C395.517 31.581 396.275 31.7088 397.022 31.9645C397.77 32.2202 398.451 32.6357 399.065 33.2109C399.678 33.7798 400.167 34.5341 400.532 35.4737C400.896 36.4134 401.078 37.5703 401.078 38.9446V39.9034H389.726V37.9474H398.777C398.777 37.1165 398.611 36.375 398.278 35.723C397.952 35.071 397.486 34.5565 396.879 34.1793C396.278 33.8022 395.568 33.6136 394.75 33.6136C393.849 33.6136 393.069 33.8374 392.411 34.2848C391.759 34.7259 391.257 35.3011 390.905 36.0107C390.554 36.7202 390.378 37.4808 390.378 38.2926V39.5966C390.378 40.7088 390.57 41.6516 390.953 42.4251C391.343 43.1921 391.883 43.777 392.574 44.1797C393.264 44.576 394.066 44.7741 394.98 44.7741C395.575 44.7741 396.112 44.6911 396.591 44.5249C397.077 44.3523 397.495 44.0966 397.847 43.7578C398.199 43.4126 398.47 42.9844 398.662 42.473L400.848 43.0866C400.618 43.8281 400.231 44.4801 399.688 45.0426C399.145 45.5987 398.473 46.0334 397.674 46.3466C396.875 46.6534 395.977 46.8068 394.98 46.8068ZM404.52 46.5V31.7727H406.706V33.9972H406.86C407.128 33.2685 407.614 32.6772 408.317 32.2234C409.02 31.7695 409.813 31.5426 410.695 31.5426C410.861 31.5426 411.069 31.5458 411.318 31.5522C411.567 31.5586 411.756 31.5682 411.884 31.581V33.8821C411.807 33.8629 411.631 33.8342 411.357 33.7958C411.088 33.7511 410.804 33.7287 410.503 33.7287C409.787 33.7287 409.148 33.8789 408.586 34.1793C408.029 34.4734 407.588 34.8825 407.262 35.4066C406.943 35.9244 406.783 36.5156 406.783 37.1804V46.5H404.52ZM425.497 46.5L421.009 31.7727H423.387L426.57 43.0483H426.724L429.869 31.7727H432.285L435.391 43.0099H435.545L438.728 31.7727H441.106L436.619 46.5H434.394L431.173 35.1861H430.943L427.721 46.5H425.497ZM444.097 46.5V31.7727H446.36V46.5H444.097ZM445.248 29.3182C444.807 29.3182 444.427 29.168 444.107 28.8675C443.794 28.5671 443.637 28.206 443.637 27.7841C443.637 27.3622 443.794 27.0011 444.107 26.7006C444.427 26.4002 444.807 26.25 445.248 26.25C445.689 26.25 446.066 26.4002 446.379 26.7006C446.699 27.0011 446.859 27.3622 446.859 27.7841C446.859 28.206 446.699 28.5671 446.379 28.8675C446.066 29.168 445.689 29.3182 445.248 29.3182ZM456.909 31.7727V33.6903H449.277V31.7727H456.909ZM451.502 28.2443H453.765V42.2812C453.765 42.9205 453.857 43.3999 454.043 43.7195C454.234 44.0327 454.477 44.2436 454.771 44.3523C455.072 44.4545 455.388 44.5057 455.721 44.5057C455.97 44.5057 456.174 44.4929 456.334 44.4673C456.494 44.4354 456.622 44.4098 456.718 44.3906L457.178 46.4233C457.025 46.4808 456.81 46.5384 456.536 46.5959C456.261 46.6598 455.912 46.6918 455.49 46.6918C454.851 46.6918 454.225 46.5543 453.611 46.2795C453.004 46.0046 452.499 45.5859 452.096 45.0234C451.7 44.4609 451.502 43.7514 451.502 42.8949V28.2443ZM462.892 37.6406V46.5H460.63V26.8636H462.892V34.0739H463.084C463.429 33.3132 463.947 32.7092 464.637 32.2617C465.334 31.8079 466.261 31.581 467.418 31.581C468.422 31.581 469.3 31.7823 470.055 32.185C470.809 32.5813 471.394 33.1918 471.809 34.0163C472.231 34.8345 472.442 35.8764 472.442 37.142V46.5H470.179V37.2955C470.179 36.1257 469.876 35.2212 469.268 34.582C468.668 33.9364 467.833 33.6136 466.766 33.6136C466.025 33.6136 465.36 33.7702 464.772 34.0835C464.19 34.3967 463.73 34.8537 463.391 35.4545C463.059 36.0554 462.892 36.7841 462.892 37.6406ZM488.509 46.8452C487.576 46.8452 486.729 46.6694 485.968 46.3178C485.208 45.9599 484.604 45.4453 484.156 44.7741C483.709 44.0966 483.485 43.2784 483.485 42.3196C483.485 41.4759 483.651 40.7919 483.984 40.2678C484.316 39.7372 484.76 39.3217 485.316 39.0213C485.873 38.7209 486.486 38.4972 487.157 38.3501C487.835 38.1967 488.516 38.0753 489.2 37.9858C490.095 37.8707 490.82 37.7844 491.376 37.7269C491.939 37.663 492.348 37.5575 492.603 37.4105C492.866 37.2635 492.997 37.0078 492.997 36.6435V36.5668C492.997 35.6207 492.738 34.8857 492.22 34.3615C491.709 33.8374 490.932 33.5753 489.89 33.5753C488.81 33.5753 487.963 33.8118 487.349 34.2848C486.736 34.7578 486.304 35.2628 486.055 35.7997L483.907 35.0327C484.291 34.1378 484.802 33.4411 485.441 32.9425C486.087 32.4375 486.79 32.0859 487.551 31.8878C488.318 31.6832 489.072 31.581 489.813 31.581C490.286 31.581 490.83 31.6385 491.443 31.7536C492.063 31.8622 492.661 32.0891 493.236 32.4343C493.818 32.7795 494.301 33.3004 494.684 33.9972C495.068 34.6939 495.259 35.6271 495.259 36.7969V46.5H492.997V44.5057H492.881C492.728 44.8253 492.472 45.1673 492.114 45.5316C491.756 45.896 491.28 46.206 490.686 46.4616C490.091 46.7173 489.366 46.8452 488.509 46.8452ZM488.854 44.8125C489.749 44.8125 490.504 44.6367 491.117 44.2852C491.737 43.9336 492.204 43.4798 492.517 42.9237C492.837 42.3675 492.997 41.7827 492.997 41.169V39.098C492.901 39.2131 492.69 39.3185 492.364 39.4144C492.044 39.5039 491.673 39.5838 491.252 39.6541C490.836 39.718 490.43 39.7756 490.034 39.8267C489.644 39.8714 489.328 39.9098 489.085 39.9418C488.497 40.0185 487.947 40.1431 487.435 40.3157C486.93 40.4819 486.521 40.7344 486.208 41.0732C485.901 41.4055 485.748 41.8594 485.748 42.4347C485.748 43.2209 486.039 43.8153 486.62 44.218C487.209 44.6143 487.953 44.8125 488.854 44.8125ZM513.388 31.7727V33.6903H505.756V31.7727H513.388ZM507.98 28.2443H510.243V42.2812C510.243 42.9205 510.336 43.3999 510.521 43.7195C510.713 44.0327 510.956 44.2436 511.25 44.3523C511.55 44.4545 511.867 44.5057 512.199 44.5057C512.448 44.5057 512.653 44.4929 512.813 44.4673C512.972 44.4354 513.1 44.4098 513.196 44.3906L513.656 46.4233C513.503 46.4808 513.289 46.5384 513.014 46.5959C512.739 46.6598 512.391 46.6918 511.969 46.6918C511.33 46.6918 510.703 46.5543 510.09 46.2795C509.482 46.0046 508.977 45.5859 508.575 45.0234C508.178 44.4609 507.98 43.7514 507.98 42.8949V28.2443ZM522.808 46.8068C521.389 46.8068 520.165 46.4936 519.136 45.8672C518.113 45.2344 517.324 44.3523 516.768 43.2209C516.218 42.0831 515.943 40.7599 515.943 39.2514C515.943 37.7429 516.218 36.4134 516.768 35.2628C517.324 34.1058 518.097 33.2045 519.088 32.5589C520.085 31.907 521.249 31.581 522.578 31.581C523.345 31.581 524.103 31.7088 524.85 31.9645C525.598 32.2202 526.279 32.6357 526.893 33.2109C527.506 33.7798 527.995 34.5341 528.36 35.4737C528.724 36.4134 528.906 37.5703 528.906 38.9446V39.9034H517.554V37.9474H526.605C526.605 37.1165 526.439 36.375 526.107 35.723C525.781 35.071 525.314 34.5565 524.707 34.1793C524.106 33.8022 523.396 33.6136 522.578 33.6136C521.677 33.6136 520.897 33.8374 520.239 34.2848C519.587 34.7259 519.085 35.3011 518.733 36.0107C518.382 36.7202 518.206 37.4808 518.206 38.2926V39.5966C518.206 40.7088 518.398 41.6516 518.781 42.4251C519.171 43.1921 519.711 43.777 520.402 44.1797C521.092 44.576 521.894 44.7741 522.808 44.7741C523.403 44.7741 523.94 44.6911 524.419 44.5249C524.905 44.3523 525.324 44.0966 525.675 43.7578C526.027 43.4126 526.298 42.9844 526.49 42.473L528.676 43.0866C528.446 43.8281 528.059 44.4801 527.516 45.0426C526.973 45.5987 526.301 46.0334 525.502 46.3466C524.703 46.6534 523.805 46.8068 522.808 46.8068ZM536.682 46.8452C535.749 46.8452 534.902 46.6694 534.141 46.3178C533.381 45.9599 532.777 45.4453 532.329 44.7741C531.882 44.0966 531.658 43.2784 531.658 42.3196C531.658 41.4759 531.824 40.7919 532.157 40.2678C532.489 39.7372 532.933 39.3217 533.489 39.0213C534.045 38.7209 534.659 38.4972 535.33 38.3501C536.008 38.1967 536.689 38.0753 537.373 37.9858C538.267 37.8707 538.993 37.7844 539.549 37.7269C540.112 37.663 540.521 37.5575 540.776 37.4105C541.038 37.2635 541.169 37.0078 541.169 36.6435V36.5668C541.169 35.6207 540.911 34.8857 540.393 34.3615C539.881 33.8374 539.105 33.5753 538.063 33.5753C536.983 33.5753 536.136 33.8118 535.522 34.2848C534.908 34.7578 534.477 35.2628 534.228 35.7997L532.08 35.0327C532.463 34.1378 532.975 33.4411 533.614 32.9425C534.26 32.4375 534.963 32.0859 535.723 31.8878C536.49 31.6832 537.245 31.581 537.986 31.581C538.459 31.581 539.002 31.6385 539.616 31.7536C540.236 31.8622 540.834 32.0891 541.409 32.4343C541.991 32.7795 542.473 33.3004 542.857 33.9972C543.24 34.6939 543.432 35.6271 543.432 36.7969V46.5H541.169V44.5057H541.054C540.901 44.8253 540.645 45.1673 540.287 45.5316C539.929 45.896 539.453 46.206 538.859 46.4616C538.264 46.7173 537.539 46.8452 536.682 46.8452ZM537.027 44.8125C537.922 44.8125 538.676 44.6367 539.29 44.2852C539.91 43.9336 540.377 43.4798 540.69 42.9237C541.01 42.3675 541.169 41.7827 541.169 41.169V39.098C541.074 39.2131 540.863 39.3185 540.537 39.4144C540.217 39.5039 539.846 39.5838 539.424 39.6541C539.009 39.718 538.603 39.7756 538.207 39.8267C537.817 39.8714 537.5 39.9098 537.257 39.9418C536.669 40.0185 536.12 40.1431 535.608 40.3157C535.103 40.4819 534.694 40.7344 534.381 41.0732C534.074 41.4055 533.921 41.8594 533.921 42.4347C533.921 43.2209 534.212 43.8153 534.793 44.218C535.381 44.6143 536.126 44.8125 537.027 44.8125ZM547.562 46.5V31.7727H549.748V34.0739H549.94C550.247 33.2876 550.742 32.6772 551.426 32.2425C552.11 31.8015 552.932 31.581 553.89 31.581C554.862 31.581 555.671 31.8015 556.316 32.2425C556.968 32.6772 557.476 33.2876 557.841 34.0739H557.994C558.371 33.3132 558.937 32.7092 559.691 32.2617C560.445 31.8079 561.35 31.581 562.405 31.581C563.721 31.581 564.798 31.9933 565.636 32.8178C566.473 33.636 566.892 34.9112 566.892 36.6435V46.5H564.629V36.6435C564.629 35.5568 564.332 34.7802 563.737 34.3136C563.143 33.8469 562.443 33.6136 561.638 33.6136C560.602 33.6136 559.8 33.9268 559.231 34.5533C558.662 35.1733 558.378 35.9595 558.378 36.9119V46.5H556.076V36.4134C556.076 35.576 555.805 34.9016 555.261 34.3903C554.718 33.8725 554.018 33.6136 553.162 33.6136C552.574 33.6136 552.024 33.7702 551.513 34.0835C551.008 34.3967 550.598 34.8313 550.285 35.3874C549.978 35.9371 549.825 36.5732 549.825 37.2955V46.5H547.562Z" fill="#2A3647"/>
</svg>
